<svg id="Layer_1" data-name="Layer 1" xmlns="http://www.w3.org/2000/svg" viewBox="0 0 77.99 78"><defs><style>.cls-1{fill:#85d1a0;}.cls-2{fill:#6255a5;}.cls-3{fill:#a0616a;}.cls-4{fill:#3f3d56;}.cls-5{fill:#fff;}.cls-6{fill:#e6e6e6;}.cls-7{fill:#2f2e41;}.cls-8{fill:#ffb6b6;}</style></defs><title>credit-card-icon</title><path class="cls-1" d="M66,1a1,1,0,0,0,0,2,1,1,0,0,0,1-1,1,1,0,0,0-.3-.7A1,1,0,0,0,66,1Z" transform="translate(0 0)"/><path class="cls-1" d="M39,2A37,37,0,1,0,65.16,12.84,37,37,0,0,0,39,2Z" transform="translate(0 0)"/><path class="cls-1" d="M72,0a4,4,0,1,0,2.83,1.17A4,4,0,0,0,72,0Z" transform="translate(0 0)"/><path class="cls-1" d="M76,11a2,2,0,1,0,2,2,2,2,0,0,0-.58-1.42A2,2,0,0,0,76,11Z" transform="translate(0 0)"/><path class="cls-2" d="M70,63a2,2,0,1,0,2,2,2,2,0,0,0-.58-1.42A2,2,0,0,0,70,63ZM4,48a4,4,0,1,0,2.83,1.17A4,4,0,0,0,4,48Z" transform="translate(0 0)"/><path class="cls-1" d="M14,74a2,2,0,1,0,2,2,2,2,0,0,0-.58-1.42A2,2,0,0,0,14,74Z" transform="translate(0 0)"/><path class="cls-2" d="M7.5,38a2.49,2.49,0,1,0,1.77.73A2.51,2.51,0,0,0,7.5,38Zm61-17a1.5,1.5,0,1,0,1.06.44A1.5,1.5,0,0,0,68.5,21Z" transform="translate(0 0)"/><polygon class="cls-3" points="23.06 19.03 22.61 21.41 24.86 22.05 24.58 19.5 23.06 19.03"/><path class="cls-4" d="M9.72,68.32a.13.13,0,0,0,.14.13H69.08a.13.13,0,0,0,.13-.13.13.13,0,0,0-.13-.14H9.86A.15.15,0,0,0,9.72,68.32Z" transform="translate(0 0)"/><path class="cls-5" d="M50.08,36H26.77A4.78,4.78,0,0,0,22,40.77V63.39a4.78,4.78,0,0,0,4.78,4.79H50.08a4.78,4.78,0,0,0,4.79-4.79V40.77A4.77,4.77,0,0,0,50.08,36Z" transform="translate(0 0)"/><path class="cls-4" d="M50.08,68.29H26.77a4.91,4.91,0,0,1-4.9-4.9V40.77a4.91,4.91,0,0,1,4.9-4.89H50.08A4.91,4.91,0,0,1,55,40.77V63.39a4.9,4.9,0,0,1-4.9,4.9ZM26.77,36.1a4.68,4.68,0,0,0-4.67,4.67V63.39a4.68,4.68,0,0,0,4.67,4.68H50.08a4.68,4.68,0,0,0,4.67-4.68V40.77a4.68,4.68,0,0,0-4.67-4.67Z" transform="translate(0 0)"/><path class="cls-2" d="M51.77,45.8H42.4a.73.73,0,1,1,0-1.45h9.37a.73.73,0,1,1,0,1.45Z" transform="translate(0 0)"/><path class="cls-2" d="M43,51.47H33.87a.42.42,0,0,1-.42-.42.41.41,0,0,1,.42-.42H43a.42.42,0,1,1,0,.84Z" transform="translate(0 0)"/><path class="cls-2" d="M24.9,37.54h5.21s0,0,0,0v.6a0,0,0,0,1,0,0H24.9a0,0,0,0,1,0,0v-.6S24.89,37.54,24.9,37.54Z" transform="translate(0 0)"/><circle class="cls-4" cx="47.62" cy="37.68" r="0.54"/><circle class="cls-4" cx="49.12" cy="37.68" r="0.54"/><circle class="cls-4" cx="50.6" cy="37.68" r="0.54"/><path class="cls-4" d="M26.72,53.69a.13.13,0,0,0,.13.14H50a.14.14,0,0,0,0-.28H26.85A.14.14,0,0,0,26.72,53.69Z" transform="translate(0 0)"/><path id="uuid-d0b76542-8f08-4363-846d-0cc3b89caf22-470" class="cls-3" d="M33.78,20.41c.49-.41,1.1-.49,1.36-.17s.07.9-.42,1.31a1.56,1.56,0,0,1-.68.34l-2.11,1.7-.78-1L33.31,21a1.63,1.63,0,0,1,.47-.6Z" transform="translate(0 0)"/><path class="cls-6" d="M21.58,24.24a1.54,1.54,0,0,1,.49-1.14,1.84,1.84,0,0,1,1.62-.22c.63.16.69.43,1.29.72,1.12.52-.28.26.39.09.22-.06,3.55-.29,4.37-.8,1.61-1,2.7-1.58,2.7-1.58l.72,1.43a12.7,12.7,0,0,1-2.5,2.5c-1.5,1.09-2.24,1.65-3.38,1.85a6.19,6.19,0,0,1-4.44-1,2.54,2.54,0,0,1-1.26-1.83Z" transform="translate(0 0)"/><circle class="cls-3" cx="23.79" cy="18.11" r="2.49"/><polygon class="cls-3" points="43.32 34.87 40.75 32.24 39.42 33.62 41.34 36.14 43.23 36.36 43.32 34.87"/><path class="cls-7" d="M28.65,29.94a1.74,1.74,0,0,0,1.09-.15,1.35,1.35,0,0,0,.52-.51,8.39,8.39,0,0,1,5.55-2.67,2.18,2.18,0,0,1,1.18.21c.44.22.62.56,1.18,1.34.3.41.64.82,1,1.24,1.83,2.46,2.52,2.66,2.44,3.45s-1,1.71-1.66,1.61c-.26,0-.35-.22-.7-.58-1-1.06-1.43-.86-2.14-1.68s-.73-1.73-1.17-1.77-.58.65-1.44,1.54a9.34,9.34,0,0,1-1.54,1.19c-3.35,2.32-3.4,2.48-4.07,2.66-.3.08-2.4.66-3.14-.26-1.16-1.42,1.59-5.74,2.94-5.62Z" transform="translate(0 0)"/><path class="cls-7" d="M42.54,35.46a.71.71,0,0,0,.48-.41.55.55,0,0,0-.08-.48c-.11-.14-.28-.17-.27-.2a1.6,1.6,0,0,1,.85.13,3.8,3.8,0,0,1,.94.55c.39.29.33.36.58.53.73.53,1.43.12,1.83.61a.79.79,0,0,1,.16.68c-.13.45-.76.59-1.11.67a4.69,4.69,0,0,1-2.13-.08c-2.24-.37-3.5,0-3.67-.55,0-.1,0-.09.19-.82s.17-.9.31-1,.36.3.91.44a1.53,1.53,0,0,0,1-.11Z" transform="translate(0 0)"/><polygon class="cls-3" points="38.75 43.46 38.11 39.84 36.24 40.25 36.4 43.41 37.85 44.65 38.75 43.46"/><path class="cls-7" d="M29.39,31.15a1.73,1.73,0,0,0,1,.49,1.43,1.43,0,0,0,.71-.13,8.48,8.48,0,0,1,6.09.91,2.22,2.22,0,0,1,.86.83A3.89,3.89,0,0,1,38.26,35c0,.52.08,1,.09,1.56.12,3.06.59,3.61.08,4.23a1.84,1.84,0,0,1-2.27.41c-.19-.18-.17-.39-.25-.88-.24-1.44-.69-1.52-.83-2.59-.16-1.26.38-1.85,0-2.12s-.84.2-2.06.46a8.51,8.51,0,0,1-1.94.13c-4.07,0-4.2.14-4.87-.08-.3-.1-2.35-.81-2.45-2-.16-1.84,4.55-3.86,5.6-3Z" transform="translate(0 0)"/><path class="cls-7" d="M37.77,43.52a.75.75,0,0,0,.62-.07A.54.54,0,0,0,38.6,43c0-.19-.14-.31-.12-.32a1.77,1.77,0,0,1,.64.59,3.54,3.54,0,0,1,.48,1c.14.46.06.48.17.76.31.85,1.12.89,1.16,1.53a.74.74,0,0,1-.26.65c-.35.3-1,.07-1.29-.06a5,5,0,0,1-1.71-1.26c-1.65-1.58-2.88-2-2.73-2.52,0-.1.06-.07.61-.57s.64-.65.79-.62.14.45.51.87a1.61,1.61,0,0,0,.92.48Z" transform="translate(0 0)"/><path class="cls-7" d="M24.13,18.59c.1-.36,0-.48.1-.64,0,0,.05-.07.5-.23h0c-.13-.77,0-.89,0-.89a.59.59,0,0,1,.5-.17c.32,0,.38.34.6.33s.63-.59.53-1.09-.46-.72-.57-.66-.43-.18-.56-.13-.5,0-.6,0-.4.34-.42.31c-.2-.27-.2-.36-.31-.41s-.42.08-.79.26c-.78.37-1,.15-1.36.46-.19.16-.28.47-.47,1.07-.26.84-.39,1.26-.26,1.65s.32.32.6.9.2,1,.5,1.16a.63.63,0,0,0,.73-.17c.23-.36-.38-.84-.18-1.4.13-.34.53-.6.76-.53s.3.57.47.57.25-.36.26-.42Z" transform="translate(0 0)"/><path class="cls-6" d="M22.25,21c.51-.57,2.58,0,2.79.93.08.37-.22.53-.14,1,.13.63.82.59,1.33,1.23.72.9,0,1.8.79,3.31a2.39,2.39,0,0,0,.64.86c.7.61,1.36.4,1.72,1a1.53,1.53,0,0,1,.14,1.07c-.11.5-.4.62-.6,1-.35.68,0,1.18.06,2a3.14,3.14,0,0,1-1.58,2.88c-1.22.53-2.68-.34-3.38-1.19a4,4,0,0,1-.73-1.55C22.46,30.87,22,31.09,21.36,29c-.72-2.35-.86-5.09,0-6a2.63,2.63,0,0,0,.64-.87c.25-.65,0-1,.25-1.23Z" transform="translate(0 0)"/><path id="uuid-35da8825-ceb1-46f8-a8e3-884fcc945dd4-471" class="cls-3" d="M29.79,34.3c.39.5.45,1.11.13,1.36s-.89.05-1.29-.45a1.79,1.79,0,0,1-.33-.68l-1.64-2.16.85-.64,1.69,2.09a1.71,1.71,0,0,1,.59.48Z" transform="translate(0 0)"/><path class="cls-6" d="M23.74,23.16a1.59,1.59,0,0,1,1.23.23,1.84,1.84,0,0,1,.54,1.55c0,.65-.28.76-.43,1.4a4.46,4.46,0,0,0,.56,2.94,6.24,6.24,0,0,0,1.11,1.57A13.55,13.55,0,0,0,29.2,33L28,34.05a10,10,0,0,1-3.32-1.81c-1.37-1.24-3.49-5.63-3.94-6.69,0-.09.5,1.4,1.52-.78.24-.5.67-1.42,1.53-1.61Z" transform="translate(0 0)"/><path id="uuid-ba1531a6-e7ab-4297-b996-1d676f43fe3f-472" class="cls-8" d="M40.77,56.78c-.79.13-1.37.63-1.29,1.14s.78.81,1.57.69a2,2,0,0,0,.87-.35l3.34-.56L45,56.39l-3.34.47a1.81,1.81,0,0,0-.93-.08Z" transform="translate(0 0)"/><polygon class="cls-6" points="55.17 52.67 53.87 55.41 47.36 57.61 41.96 57.9 41.83 56.6 47.68 55.38 53.69 52.53 55.17 52.67"/><polygon class="cls-8" points="43.16 63.1 42 66.05 40.5 65.02 41.38 61.94 43.16 63.1"/><polygon class="cls-8" points="38.31 62.01 35.23 64.95 36.46 66.25 39.6 63.78 38.31 62.01"/><polygon class="cls-8" points="55.75 52.43 55.72 52.19 54.92 50.65 52.33 51.34 52.8 53.46 55.75 52.43"/><path class="cls-7" d="M54.65,62.69l.08,1s.33,4.31-2.33,4.65-3.84.68-5.4-2L44.53,62l-1.44,1.71-1.92-1.5s1.37-5.33,2.46-5.55l.41,0a2.78,2.78,0,0,1,2.3,1.14l3.11,4.16,1.13-.51,4.07,1.27Z" transform="translate(0 0)"/><path class="cls-7" d="M39.88,65.9l.61-1.17L42.27,66s.41,1.51-.2,1.71a8,8,0,0,1-2.33-.07s-3.14.68-3.21.07S38,66.93,38,66.93l1.91-1Z" transform="translate(0 0)"/><path class="cls-7" d="M46.58,65.08l-4.75-3L39.4,64.27l-1.64-1.92s3-4.44,3.9-4.65S44,57.36,44,57.36l4.38,4-1.78,3.68Z" transform="translate(0 0)"/><path class="cls-7" d="M35.16,64.68l1.58,1.71-.21.18s-.4,1.78-1.36,1.18a4.1,4.1,0,0,1-1-.74s-2.73.61-3-.47.47-.89.47-.89l.69.41,2.85-1.38Z" transform="translate(0 0)"/><circle class="cls-8" cx="53.14" cy="49.9" r="2.19"/><path class="cls-6" d="M52.63,53l3.15-.95s1.23,2.86,1,4.17-2.08,7.49-2.08,7.49l-4.15-2.29a10.88,10.88,0,0,0-.27-2,3.91,3.91,0,0,1,.58-4.07A9.75,9.75,0,0,0,52.63,53Z" transform="translate(0 0)"/><path id="uuid-375aaccb-22f9-42b6-a352-baabb12db8d2-473" class="cls-8" d="M45.71,67.37c-.51.62-.62,1.38-.22,1.71s1.12.09,1.63-.53a2,2,0,0,0,.44-.84l2.13-2.63-1-.84-2.18,2.57a1.88,1.88,0,0,0-.75.56Z" transform="translate(0 0)"/><polygon class="cls-6" points="55.05 54.39 55.8 57.34 52.16 63.17 48.44 66.9 47.23 65.9 50.98 61.24 53.82 55.23 55.05 54.39"/><path class="cls-7" d="M51.13,49.53h.68c.69,0,.87-.3,1.23-.27.64,0-.2,3.18-.54,4.64a3.49,3.49,0,0,0,.88,2.81c1.17,1.26,3.21,1.49,3.56.95s-.72-1.1-.47-2,1.33-.83,1.64-1.72-.76-1.38-1.44-3.63A15.7,15.7,0,0,0,56,47.94c-1-2.13-5.74-1.22-5.19.75.09.4-.18.84.33.84Z" transform="translate(0 0)"/><path class="cls-5" d="M58.12,23.55h-23a1.18,1.18,0,0,1-1.18-1.18V10.15A1.18,1.18,0,0,1,35.12,9h23a1.18,1.18,0,0,1,1.18,1.18V22.37A1.18,1.18,0,0,1,58.12,23.55Z" transform="translate(0 0)"/><path class="cls-4" d="M58.12,23.55h-23a1.18,1.18,0,0,1-1.18-1.18V10.15A1.18,1.18,0,0,1,35.12,9h23a1.18,1.18,0,0,1,1.18,1.18V22.37A1.18,1.18,0,0,1,58.12,23.55Zm-23-14.39a1,1,0,0,0-1,1V22.37a1,1,0,0,0,1,1h23a1,1,0,0,0,1-1V10.15a1,1,0,0,0-1-1Z" transform="translate(0 0)"/><circle class="cls-4" cx="56.34" cy="10.15" r="0.29"/><circle class="cls-4" cx="57.13" cy="10.15" r="0.29"/><circle class="cls-4" cx="57.92" cy="10.15" r="0.29"/><path class="cls-6" d="M35.62,14.94a.15.15,0,0,0-.15.14.11.11,0,0,0,0,.1.13.13,0,0,0,.11.05H57.73a.15.15,0,0,0,.14-.15.12.12,0,0,0,0-.1.14.14,0,0,0-.1,0Z" transform="translate(0 0)"/><path class="cls-2" d="M55,14.88v.4H35.62a.2.2,0,0,1-.14-.06.22.22,0,0,1-.06-.14.19.19,0,0,1,.2-.19H55Z" transform="translate(0 0)"/><path class="cls-6" d="M57.48,14.14h-2a.4.4,0,0,1,0-.79h2a.4.4,0,0,1,0,.79Z" transform="translate(0 0)"/><path class="cls-6" d="M44.57,12.08H35.76a.4.4,0,0,1-.39-.4.41.41,0,0,1,.39-.4h8.81a.41.41,0,0,1,.4.4A.4.4,0,0,1,44.57,12.08Z" transform="translate(0 0)"/><path class="cls-6" d="M35.62,19.36a.15.15,0,0,0-.15.14.14.14,0,0,0,0,.11.15.15,0,0,0,.11,0H57.73a.15.15,0,0,0,.14-.15.12.12,0,0,0,0-.1.14.14,0,0,0-.1,0Z" transform="translate(0 0)"/><path class="cls-2" d="M47.38,19.31v.4H35.62a.17.17,0,0,1-.14-.06.2.2,0,0,1-.06-.13.19.19,0,0,1,.2-.2H47.38Z" transform="translate(0 0)"/><path class="cls-6" d="M57.48,18.57h-2a.4.4,0,0,1,0-.79h2a.4.4,0,0,1,0,.79Z" transform="translate(0 0)"/></svg>