<svg id="Layer_1" data-name="Layer 1" xmlns="http://www.w3.org/2000/svg" viewBox="0 0 77.99 78"><defs><style>.cls-1{fill:#85d1a0;}.cls-2,.cls-3{fill:#6255a5;}.cls-3,.cls-4,.cls-6{opacity:0.1;}.cls-3,.cls-6{isolation:isolate;}.cls-5{fill:#3f3d56;}.cls-7{fill:#192534;}.cls-8{fill:#fbbebe;}.cls-9{fill:#f2f2f2;}.cls-10{fill:#01e7c0;}.cls-11{fill:#fff;}.cls-12{fill:#f9f9f9;}.cls-13{fill:#464a5f;}.cls-14{fill:#9c9ca1;}.cls-15{fill:#939498;}</style></defs><title>hall of fame</title><path class="cls-1" d="M66,1a1,1,0,0,0,0,2,1,1,0,0,0,1-1,1,1,0,0,0-.3-.7A1,1,0,0,0,66,1Z" transform="translate(0 0)"/><path class="cls-1" d="M39,2A37,37,0,1,0,65.16,12.84,37,37,0,0,0,39,2Z" transform="translate(0 0)"/><path class="cls-1" d="M72,0a4,4,0,1,0,2.83,1.17A4,4,0,0,0,72,0Z" transform="translate(0 0)"/><path class="cls-1" d="M76,11a2,2,0,1,0,2,2,2,2,0,0,0-.58-1.42A2,2,0,0,0,76,11Z" transform="translate(0 0)"/><path class="cls-2" d="M70,63a2,2,0,1,0,2,2,2,2,0,0,0-.58-1.42A2,2,0,0,0,70,63ZM4,48a4,4,0,1,0,2.83,1.17A4,4,0,0,0,4,48Z" transform="translate(0 0)"/><path class="cls-1" d="M14,74a2,2,0,1,0,2,2,2,2,0,0,0-.58-1.42A2,2,0,0,0,14,74Z" transform="translate(0 0)"/><path class="cls-2" d="M7.5,38a2.49,2.49,0,1,0,1.77.73A2.51,2.51,0,0,0,7.5,38Zm61-17a1.5,1.5,0,1,0,1.06.44A1.5,1.5,0,0,0,68.5,21Z" transform="translate(0 0)"/><path class="cls-3" d="M66,59.47,59.47,48.15a.2.2,0,0,0-.28-.08.2.2,0,0,0-.08.08L52.57,59.47a.21.21,0,0,0,.07.29.2.2,0,0,0,.11,0h2a.21.21,0,0,1,.21.21v2.42a.2.2,0,0,0,.21.2h2.54a.2.2,0,0,0,.21-.2V61.25a.21.21,0,0,1,.21-.21H60.5a.21.21,0,0,1,.21.21v1.17a.2.2,0,0,0,.21.2h2.54a.2.2,0,0,0,.21-.2V60a.2.2,0,0,1,.21-.2h1.95a.21.21,0,0,0,.21-.21A.23.23,0,0,0,66,59.47Zm-9.12,1.26a.2.2,0,0,1-.14.06h-.92a.21.21,0,0,1-.21-.21.21.21,0,0,1,.21-.21h.92a.21.21,0,0,1,.2.21.2.2,0,0,1-.06.15Zm6,0a.2.2,0,0,1-.15.06h-.91a.21.21,0,0,1-.21-.21.21.21,0,0,1,.21-.21h.91a.21.21,0,0,1,.21.21.2.2,0,0,1-.06.15Z" transform="translate(0 0)"/><path class="cls-3" d="M25.59,59.57,19.05,48.25a.21.21,0,0,0-.29-.08.19.19,0,0,0-.07.08L13,58a17,17,0,0,0,2.36,2.44h.92a.21.21,0,0,1,.21.21.21.21,0,0,1-.21.21h-.39a10.37,10.37,0,0,0,1.52.94v-.48a.21.21,0,0,1,.21-.21h2.42a.21.21,0,0,1,.21.21v1.16a.29.29,0,0,0,0,.09.2.2,0,0,0,.19.12H23a.21.21,0,0,0,.17-.08.2.2,0,0,0,0-.13V60.1a.21.21,0,0,1,.21-.21h1.95a.22.22,0,0,0,.21-.22A.19.19,0,0,0,25.59,59.57Zm-4.32,1a.18.18,0,0,1,.14-.06h.92a.21.21,0,0,1,.21.21.21.21,0,0,1-.21.21h-.92a.22.22,0,0,1-.21-.21.21.21,0,0,1,.07-.15Zm-4.11-4.19a.21.21,0,0,1-.21-.21V54.55a.21.21,0,0,1,.21-.21h3.42a.21.21,0,0,1,.21.21v1.58a.21.21,0,0,1-.21.21Z" transform="translate(0 0)"/><path class="cls-3" d="M51.44,39.22H43.35V37.47a.41.41,0,0,0-.42-.41H40.55V35.19a.26.26,0,0,0-.26-.26H37.23a.27.27,0,0,0-.27.26v1.87H34.17a.41.41,0,0,0-.42.41h0v1.75H26a.09.09,0,0,0-.08.09V62.55a.09.09,0,0,0,.08.08h5.13a.09.09,0,0,0,.09-.08V59.42a.09.09,0,0,1,.08-.09H33.5a.08.08,0,0,1,.08.09v3.13a.09.09,0,0,0,.09.08H43.8a.09.09,0,0,0,.09-.08V59.42a.09.09,0,0,1,.08-.09h2.17a.09.09,0,0,1,.09.09v3.13a.08.08,0,0,0,.08.08h5.13a.08.08,0,0,0,.08-.08V39.31A.08.08,0,0,0,51.44,39.22Zm-21.11,19a.08.08,0,0,1-.09.08H27.08a.08.08,0,0,1-.09-.08h0V57.17a.09.09,0,0,1,.09-.09h3.16a.09.09,0,0,1,.09.09Zm0-2.8a.09.09,0,0,1-.08.09H27.08a.09.09,0,0,1-.09-.09h0V54.37a.08.08,0,0,1,.09-.08h3.16a.08.08,0,0,1,.09.08h0Zm0-2.79a.09.09,0,0,1-.09.08H27.08a.09.09,0,0,1-.09-.08V51.58a.09.09,0,0,1,.09-.09h3.16a.09.09,0,0,1,.09.09Zm0-2.8a.09.09,0,0,1-.08.09H27.08a.09.09,0,0,1-.09-.09h0V48.78a.08.08,0,0,1,.09-.08h3.16a.08.08,0,0,1,.09.08h0Zm0-2.79a.09.09,0,0,1-.09.08H27.08a.09.09,0,0,1-.09-.08V46a.09.09,0,0,1,.09-.08h3.16a.09.09,0,0,1,.09.08h0Zm0-2.8a.09.09,0,0,1-.09.09H27.08a.09.09,0,0,1-.09-.09h0V43.19a.09.09,0,0,1,.09-.09h3.16a.09.09,0,0,1,.09.09Zm0-2.79a.09.09,0,0,1-.08.08H27.08a.09.09,0,0,1-.09-.08h0V40.39a.09.09,0,0,1,.09-.08h3.16a.09.09,0,0,1,.09.08h0Zm7.51,16.77a.09.09,0,0,1-.09.08H34.58a.09.09,0,0,1-.08-.08V57.17a.09.09,0,0,1,.08-.09h3.17a.09.09,0,0,1,.09.09Zm0-2.8a.09.09,0,0,1-.08.09H34.58a.09.09,0,0,1-.08-.09V54.37a.08.08,0,0,1,.08-.08h3.17a.08.08,0,0,1,.09.08h0Zm0-2.79a.09.09,0,0,1-.09.08H34.58a.09.09,0,0,1-.08-.08V51.58a.09.09,0,0,1,.08-.09h3.17a.09.09,0,0,1,.09.09Zm0-2.8a.09.09,0,0,1-.08.09H34.58a.09.09,0,0,1-.08-.09V48.78a.08.08,0,0,1,.08-.08h3.17a.08.08,0,0,1,.09.08h0Zm0-2.79a.09.09,0,0,1-.09.08H34.58a.09.09,0,0,1-.08-.08V46a.09.09,0,0,1,.08-.08h3.17a.09.09,0,0,1,.09.08h0Zm0-2.8a.09.09,0,0,1-.09.09H34.58a.09.09,0,0,1-.08-.09V43.19a.09.09,0,0,1,.08-.09h3.17a.09.09,0,0,1,.09.09Zm0-2.79a.09.09,0,0,1-.08.08H34.58a.09.09,0,0,1-.08-.08V40.39a.09.09,0,0,1,.08-.08h3.17a.09.09,0,0,1,.09.08h0ZM43,58.25a.09.09,0,0,1-.08.08H39.72a.09.09,0,0,1-.09-.08V57.17a.09.09,0,0,1,.09-.09h3.17a.09.09,0,0,1,.08.09Zm0-2.8a.09.09,0,0,1-.08.09H39.72a.09.09,0,0,1-.09-.09V54.37a.08.08,0,0,1,.09-.08h3.17a.08.08,0,0,1,.08.08h0Zm0-2.79a.09.09,0,0,1-.08.08H39.72a.09.09,0,0,1-.09-.08V51.58a.09.09,0,0,1,.09-.09h3.17a.09.09,0,0,1,.08.09Zm0-2.8a.09.09,0,0,1-.08.09H39.72a.09.09,0,0,1-.09-.09V48.78a.08.08,0,0,1,.09-.08h3.17a.08.08,0,0,1,.08.08h0Zm0-2.79a.09.09,0,0,1-.08.08H39.72a.09.09,0,0,1-.09-.08V46a.09.09,0,0,1,.09-.08h3.17A.09.09,0,0,1,43,46h0Zm0-2.8a.08.08,0,0,1-.08.08H39.72a.08.08,0,0,1-.09-.08V43.19a.09.09,0,0,1,.09-.09h3.17a.09.09,0,0,1,.08.09Zm0-2.8a.09.09,0,0,1-.08.09H39.72a.09.09,0,0,1-.09-.09V40.39a.09.09,0,0,1,.09-.08h3.17a.09.09,0,0,1,.08.08h0Zm7.51,16.78a.09.09,0,0,1-.08.08H47.23a.09.09,0,0,1-.09-.08h0V57.17a.09.09,0,0,1,.09-.09H50.4a.09.09,0,0,1,.08.09Zm0-2.8a.09.09,0,0,1-.08.09H47.23a.09.09,0,0,1-.09-.09h0V54.37a.08.08,0,0,1,.09-.08H50.4a.08.08,0,0,1,.08.08Zm0-2.79a.09.09,0,0,1-.08.08H47.23a.09.09,0,0,1-.09-.08V51.58a.09.09,0,0,1,.09-.09H50.4a.09.09,0,0,1,.08.09Zm0-2.8a.09.09,0,0,1-.08.09H47.23a.09.09,0,0,1-.09-.09h0V48.78a.08.08,0,0,1,.09-.08H50.4a.08.08,0,0,1,.08.08Zm0-2.8a.09.09,0,0,1-.08.09H47.23a.09.09,0,0,1-.09-.09V46a.09.09,0,0,1,.09-.08H50.4a.09.09,0,0,1,.08.08Zm0-2.79a.08.08,0,0,1-.08.08H47.23a.08.08,0,0,1-.09-.08h0V43.19a.09.09,0,0,1,.09-.09H50.4a.09.09,0,0,1,.08.09Zm0-2.8a.09.09,0,0,1-.08.09H47.23a.09.09,0,0,1-.09-.08h0V40.39a.09.09,0,0,1,.09-.08H50.4a.09.09,0,0,1,.08.08Z" transform="translate(0 0)"/><g class="cls-4"><path class="cls-5" d="M13,54.8a1.58,1.58,0,0,1-.2.77,1.6,1.6,0,0,1,0,1.56,1.2,1.2,0,0,1,.15.37,30.13,30.13,0,0,1-1.89-2.82h0a1.54,1.54,0,0,1,.2-.66,1.61,1.61,0,0,1-.11-1.31,2.56,2.56,0,0,1,.11-.24.85.85,0,0,1,1.54,0,.94.94,0,0,1,.1.23,1.49,1.49,0,0,1,.1.55,1.58,1.58,0,0,1-.2.77A1.65,1.65,0,0,1,13,54.8Z" transform="translate(0 0)"/><ellipse class="cls-5" cx="12.07" cy="51.69" rx="0.97" ry="1.27"/><ellipse class="cls-5" cx="12.07" cy="50.14" rx="0.97" ry="1.27"/><path class="cls-2" d="M16.7,42.39a4.62,4.62,0,0,1-1,2.87,4.65,4.65,0,0,1-.78,6.53,4.6,4.6,0,0,1-2,.91l-.34,0a4.7,4.7,0,0,1-1.06,0l-.35,0a5,5,0,0,1-1.45-.53,47.35,47.35,0,0,1-2.18-5.26,4.55,4.55,0,0,1,.83-1.66,4.65,4.65,0,0,1-.75-4.36l3.53,1.18L7.86,40.36a5.18,5.18,0,0,1,.53-.84,4.65,4.65,0,1,1,7.31-5.75,3.53,3.53,0,0,1,.37.55l-3.41,2.5,3.7-1.92a4.69,4.69,0,0,1-.09,3.69l-2.76,0,2.55.42a6.18,6.18,0,0,1-.36.53A4.59,4.59,0,0,1,16.7,42.39Z" transform="translate(0 0)"/><path class="cls-6" d="M16.7,48.14a4.66,4.66,0,0,1-3.76,4.56l-.33,0a4.79,4.79,0,0,1-1.07,0l-.35,0a4.89,4.89,0,0,1-1.44-.53,45.57,45.57,0,0,1-2.19-5.26,4.71,4.71,0,0,1,.83-1.66,4.67,4.67,0,0,1-1-2.87c0-.52,8.92,2.08,8.3,2.87A4.62,4.62,0,0,1,16.7,48.14Z" transform="translate(0 0)"/></g><g class="cls-4"><path class="cls-5" d="M69,53.62c-.18.58-.38,1.16-.58,1.73a1.88,1.88,0,0,1-.08-.52A1.3,1.3,0,0,1,69,53.62Z" transform="translate(0 0)"/><path class="cls-2" d="M71,43.55a26.89,26.89,0,0,1-.63,4.86A52.33,52.33,0,0,1,69,53.62c-.18.58-.38,1.16-.58,1.73s-.47,1.26-.73,1.86a4.68,4.68,0,0,1-2.78-6,4.36,4.36,0,0,1,.71-1.28,4.7,4.7,0,0,1-.76-4.4l3.55,1.2L65.07,45a5.27,5.27,0,0,1,.53-.85,4.67,4.67,0,0,1,1.84-7.2,8,8,0,0,1,3.07,4l-.62.45.66-.34a8.37,8.37,0,0,1,.39,2.1h-.19l.19,0C71,43.31,71,43.44,71,43.55Z" transform="translate(0 0)"/><path class="cls-6" d="M70.33,48.41C70,50.17,69.52,51.9,69,53.62c-.18.58-.38,1.16-.58,1.73s-.47,1.26-.72,1.86a4.69,4.69,0,0,1-2.79-6,4.87,4.87,0,0,1,.71-1.28,4.65,4.65,0,0,1-1-2.89C64.61,46.7,67.87,47.53,70.33,48.41Z" transform="translate(0 0)"/></g><path class="cls-3" d="M27.69,22.1a1.88,1.88,0,0,0-1.05.12,1.56,1.56,0,0,1-1.27,0,1.74,1.74,0,0,0-1.48,0,.92.92,0,0,1-.43.11c-.6,0-1.1-.61-1.21-1.41a1.22,1.22,0,0,0,.31-.33,1.69,1.69,0,0,1,3,0,1.15,1.15,0,0,0,1,.55h0A1.27,1.27,0,0,1,27.69,22.1Z" transform="translate(0 0)"/><path class="cls-3" d="M29.52,19.59l-1,.62.59-1.07a.93.93,0,0,0-.59-.21h0l-.2,0-.33.21.14-.25a1.24,1.24,0,0,1-.57-.44L27,18.8l.37-.67A1.72,1.72,0,0,0,26,17.46a1.82,1.82,0,0,0-1.52.93,1.12,1.12,0,0,1-1,.54h0c-.68,0-1.23.77-1.23,1.72s.55,1.71,1.23,1.71a1,1,0,0,0,.42-.1,1.76,1.76,0,0,1,1.49,0,1.54,1.54,0,0,0,1.26,0,1.72,1.72,0,0,1,1.47,0,.91.91,0,0,0,.43.1c.67,0,1.22-.77,1.22-1.71A2.18,2.18,0,0,0,29.52,19.59Z" transform="translate(0 0)"/><path class="cls-3" d="M55.59,32.36a1.25,1.25,0,0,0-.74.08,1.12,1.12,0,0,1-.88,0,1.22,1.22,0,0,0-1,0,.78.78,0,0,1-.3.07c-.42,0-.77-.42-.85-1a1,1,0,0,0,.22-.23,1.24,1.24,0,0,1,1-.65,1.26,1.26,0,0,1,1.06.64.82.82,0,0,0,.7.39h0A.85.85,0,0,1,55.59,32.36Z" transform="translate(0 0)"/><path class="cls-3" d="M56.87,30.6l-.68.43.41-.75a.61.61,0,0,0-.41-.15H56l-.23.15.1-.18a.85.85,0,0,1-.41-.31l-.41.26.26-.47a1.21,1.21,0,0,0-.92-.47,1.25,1.25,0,0,0-1.06.65.8.8,0,0,1-.7.38h0c-.47,0-.86.54-.86,1.2s.39,1.2.86,1.2a.6.6,0,0,0,.3-.07,1.22,1.22,0,0,1,1,0,1.13,1.13,0,0,0,.45.09,1.12,1.12,0,0,0,.44-.09,1.2,1.2,0,0,1,1,0,.59.59,0,0,0,.29.07c.48,0,.86-.54.86-1.2A1.52,1.52,0,0,0,56.87,30.6Z" transform="translate(0 0)"/><path class="cls-3" d="M19.39,29.53a1.3,1.3,0,0,1,.73.08,1.06,1.06,0,0,0,.89,0,1.3,1.3,0,0,1,1,0,.61.61,0,0,0,.3.08c.42,0,.77-.43.84-1A.88.88,0,0,1,23,28.5a1.28,1.28,0,0,0-1.06-.66,1.24,1.24,0,0,0-1.05.65.8.8,0,0,1-.7.38h0A.88.88,0,0,0,19.39,29.53Z" transform="translate(0 0)"/><path class="cls-3" d="M18.1,27.78l.69.43-.42-.75a.63.63,0,0,1,.41-.15h.16l.23.14-.1-.18a.78.78,0,0,0,.41-.3l.41.26-.26-.47a1.21,1.21,0,0,1,.92-.47,1.25,1.25,0,0,1,1.06.65.8.8,0,0,0,.7.38h0c.47,0,.86.53.86,1.2s-.39,1.2-.86,1.2a.61.61,0,0,1-.3-.08,1.3,1.3,0,0,0-1,0,1,1,0,0,1-.45.1,1.12,1.12,0,0,1-.44-.09,1.2,1.2,0,0,0-1,0,.73.73,0,0,1-.29.07c-.48,0-.86-.54-.86-1.2A1.63,1.63,0,0,1,18.1,27.78Z" transform="translate(0 0)"/><path class="cls-7" d="M23.35,39.59,37.1,46.23a3.43,3.43,0,0,0,2.62,0l13.76-6.64c.72-.35.72-.92,0-1.27L39.72,31.67a3.43,3.43,0,0,0-2.62,0L23.35,38.32C22.62,38.67,22.62,39.24,23.35,39.59Z" transform="translate(0 0)"/><path class="cls-7" d="M53.48,46.39,50.63,45a.66.66,0,0,0-.77,0L39.71,49.92a3,3,0,0,1-1.31.26,3,3,0,0,1-1.3-.26l-10-4.82a1,1,0,0,0-1.07,0l-2.71,1.31c-.73.35-.73.92,0,1.27L37.09,54.3a3.12,3.12,0,0,0,1.31.26,3.19,3.19,0,0,0,1.31-.26l13.75-6.64c.74-.35.74-.91,0-1.26Z" transform="translate(0 0)"/><path class="cls-7" d="M53.48,54.47l-2.85-1.38a.68.68,0,0,0-.77,0L39.72,58a3.31,3.31,0,0,1-2.62,0l-10-4.82a1,1,0,0,0-1.07,0l-2.71,1.31c-.73.35-.73.92,0,1.27l13.75,6.64a3,3,0,0,0,1.31.26,3.12,3.12,0,0,0,1.31-.26l13.76-6.64C54.2,55.39,54.2,54.82,53.48,54.47Z" transform="translate(0 0)"/><ellipse class="cls-7" cx="30.06" cy="27.66" rx="2.99" ry="4.15"/><rect class="cls-2" x="29.73" y="34.46" width="2.66" height="2.66"/><path class="cls-8" d="M27.7,47.26l.87,1.23a1.61,1.61,0,0,1,.63-1.27,6.85,6.85,0,0,0-1.23-1,.11.11,0,0,0-.07,0,.1.1,0,0,0,0,0,1.8,1.8,0,0,0-.36.55C27.44,47,27.6,47.11,27.7,47.26Z" transform="translate(0 0)"/><path class="cls-9" d="M29.44,47.09a.72.72,0,0,1,.37.13,1.86,1.86,0,0,1,.44.29.65.65,0,0,1,.22.45,1.14,1.14,0,0,1-.11.4,3.46,3.46,0,0,0-.16,1.91,1.23,1.23,0,0,1,0,.63,1,1,0,0,1-.35.44,1.64,1.64,0,0,1-.81.43.65.65,0,0,1-.72-.42,1.25,1.25,0,0,1,.06-.54,4.63,4.63,0,0,0,.1-1.29,1.29,1.29,0,0,0,0-.39c0-.09-.06-.17-.08-.26a1.11,1.11,0,0,1,0-.74,1.15,1.15,0,0,1,.21-.33C28.79,47.51,29,47.09,29.44,47.09Z" transform="translate(0 0)"/><path class="cls-8" d="M29,28.71a.68.68,0,0,1-.35.75l-.37.27a.07.07,0,0,0,0,.05.07.07,0,0,0,0,.06,1.24,1.24,0,0,0,.52.24,2.6,2.6,0,0,0,.4,0A7.27,7.27,0,0,0,31.24,30a1,1,0,0,0,.34-.15.4.4,0,0,0,.19-.31.92.92,0,0,1-.46-.21.68.68,0,0,1-.33-.36c0-.1,0-.21,0-.31a.62.62,0,0,0-.33-.38,5.4,5.4,0,0,0-1.25-.35c-.16,0-.42-.22-.43,0A6.69,6.69,0,0,0,29,28.71Z" transform="translate(0 0)"/><path class="cls-6" d="M29,28.71a.68.68,0,0,1-.35.75l-.37.27a.07.07,0,0,0,0,.05.07.07,0,0,0,0,.06,1.24,1.24,0,0,0,.52.24,2.6,2.6,0,0,0,.4,0A7.27,7.27,0,0,0,31.24,30a1,1,0,0,0,.34-.15.4.4,0,0,0,.19-.31.92.92,0,0,1-.46-.21.68.68,0,0,1-.33-.36c0-.1,0-.21,0-.31a.62.62,0,0,0-.33-.38,5.4,5.4,0,0,0-1.25-.35c-.16,0-.42-.22-.43,0A6.69,6.69,0,0,0,29,28.71Z" transform="translate(0 0)"/><path class="cls-10" d="M28.28,37.43a2.34,2.34,0,0,0-1.6.32,12.2,12.2,0,0,1-1.46.8,4.38,4.38,0,0,0-1.24.51,2,2,0,0,0-.61,1,1.52,1.52,0,0,0-.09.67,1.85,1.85,0,0,0,.17.5,21.92,21.92,0,0,0,1.28,2.32,25,25,0,0,0,2.71,3.89c.34-.23.31-.79.65-1a1.92,1.92,0,0,0,.26-.17c.15-.16.09-.43,0-.65a33,33,0,0,0-1.66-3.93c.92,0,1.69-.71,2.59-.87a4.73,4.73,0,0,1,.75-.05,26.21,26.21,0,0,0,2.67-.19,1.63,1.63,0,0,0,.91-.31,1.66,1.66,0,0,0,.41-.9,16.25,16.25,0,0,1,.81-1.94,4.34,4.34,0,0,1,.2-.5l.22-.41a6.21,6.21,0,0,0,.46-1.4c.13-.58.25-1.17.37-1.75a1.81,1.81,0,0,0,0-1.19,1.08,1.08,0,0,0-.52-.44,1.26,1.26,0,0,0-.71-.13,1.82,1.82,0,0,0-1.07.92l-.42.63a4.34,4.34,0,0,0-.28.46c-.16.31-.24.65-.37,1A3.75,3.75,0,0,1,31,36.66c-.22.11-.46.2-.68.3l-.52.27A2.38,2.38,0,0,1,28.28,37.43Z" transform="translate(0 0)"/><circle class="cls-8" cx="30.39" cy="27.16" r="1.66"/><path class="cls-2" d="M31.12,29.05a1.85,1.85,0,0,1-.28.54,1.34,1.34,0,0,1-1,.38,2.82,2.82,0,0,1-1.18-.2,1.07,1.07,0,0,0-.49-.12c-.25,0-.44.23-.65.34a2.17,2.17,0,0,1-.35.15,1.94,1.94,0,0,0-1.1,1.39c-.12.71.45,1.38.79,2a4.15,4.15,0,0,1,.41.85,2.6,2.6,0,0,1-.17,1.55,5.87,5.87,0,0,0-.44,1.52c0,.16,0,.37.2.36a.25.25,0,0,0,.16-.06,1.38,1.38,0,0,1,.91-.17c.22,0,.43.13.65.16a2.71,2.71,0,0,0,1.28-.24A2.54,2.54,0,0,0,31,36.9c.21-.23.33-.53.54-.76s.71-.44.95-.78a2.61,2.61,0,0,0,.27-.67,1,1,0,0,1,.42-.57,1.19,1.19,0,0,1-.23-.64,1.71,1.71,0,0,1,.2-.56,2.67,2.67,0,0,0,.14-.36l.14-.41c0-.11.07-.22.1-.33s.06-.39.12-.58A3.68,3.68,0,0,1,34.43,30a5.61,5.61,0,0,0-.89-.25,1.32,1.32,0,0,1-.3-.08c-.11,0-.2-.13-.31-.18a1.72,1.72,0,0,0-.54-.14A7.77,7.77,0,0,1,31.12,29.05Z" transform="translate(0 0)"/><path class="cls-8" d="M25.52,36.43a1.61,1.61,0,0,0,0,.44,1.63,1.63,0,0,0,.18.43,21.86,21.86,0,0,1,.91,2,3.24,3.24,0,0,1,.19.55c0,.14,0,.29,0,.43a1.48,1.48,0,0,0,.12.41,4.3,4.3,0,0,0,.56,1,.7.7,0,0,0,.88-.27c.19-.28-.06-1.28-.15-1.6a3.67,3.67,0,0,0-.43-.92,15.44,15.44,0,0,1-.78-1.58,2.71,2.71,0,0,1-.3-1.46,5.92,5.92,0,0,1,.27-.81,1.25,1.25,0,0,0,.08-.83.31.31,0,0,0-.06-.13.48.48,0,0,0-.17-.12c-.3-.12-.9-.21-1,.18a4.19,4.19,0,0,0-.11.51,5.76,5.76,0,0,0-.15.81C25.55,35.8,25.54,36.12,25.52,36.43Z" transform="translate(0 0)"/><path class="cls-8" d="M31.6,37.61c-.37.44-.73.88-1.08,1.34l.91.67a1.48,1.48,0,0,1,.13-.35,1.61,1.61,0,0,1,.21-.3l.92-1.14a1.67,1.67,0,0,0-.71-.24C31.86,37.61,31.72,37.6,31.6,37.61Z" transform="translate(0 0)"/><path class="cls-8" d="M35.57,30.42q.36.07.72.18a2.6,2.6,0,0,1,1.33.72c.07.08.14.21.07.3a.46.46,0,0,1-.07.07,1,1,0,0,0-.21.29,2.31,2.31,0,0,1-.41.56,1.87,1.87,0,0,0-.47-.37l-.37-.23a1.38,1.38,0,0,0-.54-.24,2.53,2.53,0,0,0-.67.05,1.39,1.39,0,0,1-.82-.19.24.24,0,0,1-.08-.06.24.24,0,0,1,0-.08,1,1,0,0,1,.22-.72c.12-.14.38-.42.58-.45a1.23,1.23,0,0,1,.33.08Z" transform="translate(0 0)"/><path class="cls-10" d="M35.28,32l-.19.09a3.85,3.85,0,0,0-1.34,1,3.16,3.16,0,0,0-.4.72l-.82,1.74-.18.37-.26.55-.67,1.42a1.14,1.14,0,0,1,.71.07.63.63,0,0,1,.37.58c.2,0,.3-.23.44-.37a3.37,3.37,0,0,1,.38-.28,2.45,2.45,0,0,0,.46-.45,15.85,15.85,0,0,1,1.39-1.33l.28-.25a2.42,2.42,0,0,0,.42-.71,6.3,6.3,0,0,0,.41-1.53,1.73,1.73,0,0,0-.07-1A1.07,1.07,0,0,0,35,32" transform="translate(0 0)"/><path class="cls-6" d="M35.22,32l-.2.09a3.81,3.81,0,0,0-1.33,1,3.94,3.94,0,0,0-.41.72l-.82,1.74-.17.37-.26.55-.67,1.43a1.15,1.15,0,0,1,.71.06.63.63,0,0,1,.37.58c.19,0,.3-.23.43-.37a3.48,3.48,0,0,1,.39-.28,3.19,3.19,0,0,0,.46-.44,13.52,13.52,0,0,1,1.39-1.34l.28-.25a2.42,2.42,0,0,0,.42-.71,6.18,6.18,0,0,0,.41-1.53,1.84,1.84,0,0,0-.07-1A1.09,1.09,0,0,0,35,32.07" transform="translate(0 0)"/><path class="cls-9" d="M30.9,38.72l-.68-.07h-.06a.1.1,0,0,0,0,.05c-.22.42-.43.84-.62,1.27a.87.87,0,0,0-.07.75c0,.07.1.12.14.19a.67.67,0,0,1,0,.52.25.25,0,0,0,0,.15c0,.07.08.11.15.14a5.46,5.46,0,0,0,1.71.52.22.22,0,0,0,.14,0,.31.31,0,0,0,0-.1,1.17,1.17,0,0,0,.05-.2,1.92,1.92,0,0,0-.07-.75,2.33,2.33,0,0,1,0-1.2,1.5,1.5,0,0,1,.22-.46c.11-.16-.27-.31-.37-.42S31.18,38.75,30.9,38.72Z" transform="translate(0 0)"/><path class="cls-2" d="M25.85,33.2l-.21,1.27a1.07,1.07,0,0,1,.68-.2.93.93,0,0,1,.69.2c.06.08.11.17.17.24a.25.25,0,0,0,.27.1.18.18,0,0,0,.13-.15.82.82,0,0,0,0-.22L27.53,33a3.44,3.44,0,0,0-.16-1,1.57,1.57,0,0,0-.3-.47.43.43,0,0,0-.12-.11.48.48,0,0,0-.17-.05,1,1,0,0,0-.58,0c-.12.08-.13.25-.15.38C26,32.27,25.92,32.74,25.85,33.2Z" transform="translate(0 0)"/><ellipse class="cls-7" cx="30.39" cy="26.17" rx="2.32" ry="1"/><circle class="cls-7" cx="27.4" cy="24.84" r="1.33"/><circle class="cls-7" cx="32.05" cy="24.51" r="1.33"/><path class="cls-6" d="M32.68,23.75a1.33,1.33,0,0,1,.3,1.73l.11-.12A1.33,1.33,0,0,0,31,23.69a.71.71,0,0,0-.1.14A1.32,1.32,0,0,1,32.68,23.75Z" transform="translate(0 0)"/><path class="cls-6" d="M27.06,23.91a1.34,1.34,0,0,1,1.67.55l-.06-.15a1.33,1.33,0,0,0-2.44,1,1.09,1.09,0,0,0,.08.15A1.32,1.32,0,0,1,27.06,23.91Z" transform="translate(0 0)"/><path class="cls-6" d="M30.39,26.83c-1.15,0-2.1-.36-2.29-.83a.47.47,0,0,0,0,.17c0,.55,1,1,2.32,1s2.33-.44,2.33-1a.47.47,0,0,0,0-.17C32.5,26.47,31.55,26.83,30.39,26.83Z" transform="translate(0 0)"/><path class="cls-11" d="M55.54,22.71A1.37,1.37,0,0,0,55,25.34,1.12,1.12,0,0,1,55,25l.17-.74a.57.57,0,0,1,0-.22c0-.2.12-.36.26-.36a.19.19,0,0,1,.19.21,3.13,3.13,0,0,1-.12.49.21.21,0,0,0,.15.25h.06c.26,0,.44-.33.44-.73a.51.51,0,0,0-.57-.52.65.65,0,0,0-.68.62v0a.42.42,0,0,0,.09.27.06.06,0,0,1,0,.08.61.61,0,0,1,0,.11,0,0,0,0,1-.05,0h0a.52.52,0,0,1-.28-.52.9.9,0,0,1,1-.86.82.82,0,0,1,.87.79c0,.53-.3.94-.74.94a.39.39,0,0,1-.33-.17s-.08.31-.1.37a1,1,0,0,1-.14.3,1.37,1.37,0,0,0,.75-2.64A1.42,1.42,0,0,0,55.54,22.71Z" transform="translate(0 0)"/><path class="cls-11" d="M51.84,15.91a1.33,1.33,0,0,1-.34.1.66.66,0,0,0,.26-.33,1,1,0,0,1-.38.14.59.59,0,0,0-.83,0,.61.61,0,0,0-.19.44.57.57,0,0,0,0,.13,1.7,1.7,0,0,1-1.22-.62.6.6,0,0,0,.19.79.5.5,0,0,1-.27-.07h0a.6.6,0,0,0,.47.58l-.15,0h-.11a.6.6,0,0,0,.55.41,1.22,1.22,0,0,1-.73.25H49a1.64,1.64,0,0,0,.91.27,1.68,1.68,0,0,0,1.69-1.69v-.07A1.42,1.42,0,0,0,51.84,15.91Z" transform="translate(0 0)"/><path class="cls-11" d="M32,14.38H29.86a.13.13,0,0,0-.13.13h0V16.6a.13.13,0,0,0,.13.13h1V15.8h-.28v-.34h.28v-.25a.44.44,0,0,1,.48-.47h.3v.31h-.21c-.15,0-.18.07-.18.18v.22h.35l0,.34h-.31v.93h.65a.13.13,0,0,0,.13-.13V14.51A.12.12,0,0,0,32,14.38Z" transform="translate(0 0)"/><path class="cls-11" d="M38.74,20.42v-.05h-.95v.4h.55a.51.51,0,0,1-.51.39A.58.58,0,0,1,37.4,21a.61.61,0,0,1,0-.85.56.56,0,0,1,.42-.16.59.59,0,0,1,.36.13l.29-.29a1,1,0,0,0-.66-.25,1,1,0,0,0-1,1v0a1,1,0,0,0,.27.69,1.06,1.06,0,0,0,.75.31.92.92,0,0,0,.68-.29,1,1,0,0,0,.26-.69,1.11,1.11,0,0,0,0-.17Zm1.19-.05h-.35V20h-.25v.34H39v.25h.35V21h.25v-.35h.35Z" transform="translate(0 0)"/><path class="cls-12" d="M20.69,22.53a.49.49,0,0,1,.49.49v1a.48.48,0,0,1-.14.34.47.47,0,0,1-.35.15h-1a.48.48,0,0,1-.48-.49V23a.48.48,0,0,1,.48-.49h1m0-.19h-1A.68.68,0,0,0,19,23v1a.68.68,0,0,0,.68.68h1a.68.68,0,0,0,.69-.68V23a.68.68,0,0,0-.69-.68Z" transform="translate(0 0)"/><path class="cls-11" d="M20.84,23a.15.15,0,0,1-.15-.14.15.15,0,0,1,.3,0h0a.15.15,0,0,1-.15.14Zm-.64.1a.39.39,0,1,1,0,.78.39.39,0,0,1-.39-.39h0a.39.39,0,0,1,.39-.39m0-.2a.59.59,0,0,0-.58.59.59.59,0,1,0,1.17,0h0a.59.59,0,0,0-.59-.59Z" transform="translate(0 0)"/><path class="cls-11" d="M48,28.36h-2a.18.18,0,0,0-.2.18h0v2a.2.2,0,0,0,.2.2h2a.19.19,0,0,0,.19-.2v-2a.17.17,0,0,0-.17-.18Zm-1.42,1.95h-.34v-1h.34Zm-.16-1.2h0a.19.19,0,0,1-.18-.19.18.18,0,0,1,.19-.17.18.18,0,0,1,.17.18.18.18,0,0,1-.16.18h0Zm1.38,1.2h-.33v-.57c0-.14,0-.23-.17-.23a.19.19,0,0,0-.18.13.19.19,0,0,0,0,.08v.59h-.33v-1h.33v.14a.34.34,0,0,1,.3-.17c.23,0,.39.15.39.46Z" transform="translate(0 0)"/><polygon class="cls-13" points="34 39.06 34.17 39.36 39.58 38.21 39.36 37.87 34 39.06"/><path class="cls-13" d="M33.36,39.35l-.82-4.86a.14.14,0,0,1,.13-.17h0l6.2-.66a.15.15,0,0,1,.17.13L39.63,38Z" transform="translate(0 0)"/><path class="cls-6" d="M33.36,39.35l-.82-4.86a.14.14,0,0,1,.13-.17h0l6.2-.66a.15.15,0,0,1,.17.13L39.63,38Z" transform="translate(0 0)"/><path class="cls-13" d="M33.45,39.35l-.82-4.86a.16.16,0,0,1,.13-.17h0L39,33.65a.16.16,0,0,1,.17.13L39.73,38Z" transform="translate(0 0)"/><polygon class="cls-2" points="33.06 34.71 33.73 38.84 39.34 37.68 38.82 34.02 33.06 34.71"/><path class="cls-14" d="M34.14,39.27l0-.08-.74.16,1.89,2.89a.24.24,0,0,0,.27.1l6.65-1.93a.25.25,0,0,0,.17-.3.3.3,0,0,0-.09-.13L39.67,38l-.53.13,0,.05Z" transform="translate(0 0)"/><path class="cls-6" d="M34.14,39.27l0-.08-.74.16,1.89,2.89a.24.24,0,0,0,.27.1l6.65-1.93a.25.25,0,0,0,.17-.3.3.3,0,0,0-.09-.13L39.67,38l-.53.13,0,.05Z" transform="translate(0 0)"/><path class="cls-14" d="M34.23,39.27l0-.08-.75.16,1.89,2.89a.25.25,0,0,0,.28.1l6.64-1.93a.24.24,0,0,0,.17-.3.2.2,0,0,0-.09-.13L39.77,38l-.54.13,0,.05Z" transform="translate(0 0)"/><path class="cls-6" d="M37.2,40.45l2.13-.56h0l1,.86a0,0,0,0,1,0,.06h0l-2.26.67h0l-.83-1a0,0,0,0,1,0,0Z" transform="translate(0 0)"/><path class="cls-15" d="M37.25,40.4l2.13-.55s0,0,0,0l.95.86s0,0,0,.05l0,0-2.26.66s0,0,0,0l-.82-1a0,0,0,0,1,0-.06Z" transform="translate(0 0)"/><g class="cls-4"><path d="M34.24,39.67l.09.15h0l.33-.07s0,0,0,0h0l-.11-.15h0l-.31.07,0,0Z" transform="translate(0 0)"/><path d="M34.66,39.58l.1.15s0,0,0,0l.32-.07a0,0,0,0,0,0,0h0l-.1-.15h0l-.32.07s0,0,0,0Z" transform="translate(0 0)"/><path d="M35.07,39.49l.1.15h0l.32-.07a0,0,0,0,0,0,0h0l-.11-.15h0l-.32.07s0,0,0,0Z" transform="translate(0 0)"/><path d="M35.48,39.4l.09.15h0l.32-.07a0,0,0,0,0,0,0h0l-.11-.15a0,0,0,0,0,0,0l-.31.06s0,0,0,0Z" transform="translate(0 0)"/><path d="M35.44,39.64l.1.15h0l.32-.07,0,0h0l-.1-.15h0l-.32.07s0,0,0,0Z" transform="translate(0 0)"/><path d="M35,39.73l.1.15h0l.32-.07a0,0,0,0,0,0,0h0l-.1-.15h0L35,39.7l0,0Z" transform="translate(0 0)"/><path d="M35.3,39.92l.09.15h0l.33-.07s0,0,0,0h0l-.11-.15h0l-.31.07s0,0,0,0Z" transform="translate(0 0)"/><path d="M35.68,40.08l.1.15s0,0,0,0l.32-.07a0,0,0,0,0,0,0h0L36,40s0,0,0,0l-.32.06a0,0,0,0,0,0,0Z" transform="translate(0 0)"/><path d="M35.75,40.35l.15.2h0l.33-.08s0,0,0,0h0l-.16-.2s0,0,0,0l-.32.08s0,0,0,0Z" transform="translate(0 0)"/><path d="M36.18,40.24l.16.2a0,0,0,0,0,0,0l.43-.12s0,0,0,0h0l-.16-.19h0l-.42.11s0,0,0,0Z" transform="translate(0 0)"/><path d="M35.33,40.46l.16.19h0l.32-.09a0,0,0,0,0,0,0h0l-.16-.19h0l-.32.09s0,0,0,0Z" transform="translate(0 0)"/><path d="M34.89,40.57l.16.19s0,0,0,0l.32-.09a0,0,0,0,0,0,0h0l-.16-.19h0l-.32.09s0,0,0,0Z" transform="translate(0 0)"/><path d="M35.88,39.31l.1.15h0l.32-.07s0,0,0,0h0l-.11-.15h0l-.31.07s0,0,0,0Z" transform="translate(0 0)"/><path d="M35.85,39.54l.1.16h0l.32-.08s0,0,0,0h0l-.1-.15s0,0,0,0l-.31.07,0,0Z" transform="translate(0 0)"/><path d="M36.27,39.22l.1.15s0,0,0,0l.32-.07s0,0,0,0h0l-.1-.15h0l-.31.07a0,0,0,0,0,0,0Z" transform="translate(0 0)"/><path d="M37.42,39l.14.14h0l.29-.06s0,0,0,0h0l-.15-.14h0l-.27.07s0,0,0,0Z" transform="translate(0 0)"/><path d="M37.79,38.88l.14.14h0l.29-.07s0,0,0,0h0l-.15-.15h0l-.27.07s0,0,0,0Z" transform="translate(0 0)"/><path d="M37.43,39.2l.14.14h0l.29-.06s0,0,0,0h0l-.15-.14h0l-.27.07s0,0,0,0Z" transform="translate(0 0)"/><path d="M37.06,39.28l.12.14h0l.28-.07s0,0,0,0h0l-.15-.14h0l-.26.06a0,0,0,0,0,0,0Z" transform="translate(0 0)"/><path d="M37.34,39.71l.13.14h0l.27-.06,0,0h0l-.14-.14h0l-.26.06s0,0,0,0Z" transform="translate(0 0)"/><path d="M37,39.8l.12.14h0l.28-.06a0,0,0,0,0,0,0h0l-.14-.14h0l-.26.07,0,0Z" transform="translate(0 0)"/><path d="M36.55,39.9l.12.13h0L37,40l0,0h0l-.14-.13h0l-.26.07a0,0,0,0,0,0,0Z" transform="translate(0 0)"/><path d="M36.13,40l.13.14s0,0,0,0l.28-.06a0,0,0,0,0,0,0h0l-.14-.14h0l-.26.06,0,0Z" transform="translate(0 0)"/><path d="M37,39.55l.12.14s0,0,0,0l.28-.06s0,0,0,0h0l-.15-.14h0l-.26.06s0,0,0,0Z" transform="translate(0 0)"/><path d="M36.56,39.64l.13.14h0l.27-.06a0,0,0,0,0,0,0h0l-.14-.14h0l-.26.06s0,0,0,0Z" transform="translate(0 0)"/><path d="M36.15,39.73l.13.13h0l.28-.06,0,0h0l-.14-.13h0l-.26.07s0,0,0,0Z" transform="translate(0 0)"/><path d="M35.73,39.83l.13.14h0l.28-.06s0,0,0,0h0L36,39.74s0,0,0,0l-.26.06a0,0,0,0,0,0,0Z" transform="translate(0 0)"/><path d="M37.34,39.46l.13.14h0l.28-.06,0,0h0l-.14-.14h0l-.26.06s0,0,0,0Z" transform="translate(0 0)"/><path d="M36.67,39.38l.12.14h0l.28-.06s0,0,0,0h0L37,39.29h0l-.26.06s0,0,0,0Z" transform="translate(0 0)"/><path d="M38.15,38.79l.14.15s0,0,0,0l.29-.06v0h0l-.16-.15h0l-.28.07s0,0,0,0Z" transform="translate(0 0)"/><path d="M38.5,38.71l.14.15h0L39,38.8v0h0l-.16-.15h0l-.28.07Z" transform="translate(0 0)"/><path d="M38.87,38.63l.13.14h0l.28-.08s0,0,0,0h0l-.14-.12h0l-.26.06s0,0,0,0Z" transform="translate(0 0)"/><path d="M39.26,38.76l.12.13h0l.28-.08h0l-.14-.12h0l-.26.06a0,0,0,0,0,0,0Z" transform="translate(0 0)"/><path d="M39.21,39l.12.13h0l.26-.07a0,0,0,0,0,0,0h0l-.13-.11h0l-.25,0s0,0,0,0Z" transform="translate(0 0)"/><path d="M38.9,39.33l.12.13h0l.27-.07s0,0,0,0h0l-.14-.11h0l-.25,0s0,0,0,0Z" transform="translate(0 0)"/><path d="M38.52,39.42l.12.14h0l.26-.07s0,0,0,0h0l-.14-.11h0l-.25,0s0,0,0,0Z" transform="translate(0 0)"/><path d="M39.25,39.23l.12.13h0l.27-.07v0h0l-.13-.12h0l-.25.06s0,0,0,0Z" transform="translate(0 0)"/><path d="M39.19,39.52l.18.16h0l.26-.07s0,0,0,0h0l-.2-.17h0l-.25.08s0,0,0,0Z" transform="translate(0 0)"/><path d="M38.55,38.93l.13.14h0L39,39h0l-.15-.12h0l-.26.06Z" transform="translate(0 0)"/><path d="M38.2,39l.12.13h0l.27-.07v0h0l-.13-.12h0L38.2,39h0Z" transform="translate(0 0)"/><path d="M38.12,39.28l.12.13h0l.27-.07v0h0l-.13-.11h0l-.25.06s0,0,0,0Z" transform="translate(0 0)"/><path d="M37.75,39.37l.12.13h0l.27-.07s0,0,0,0h0L38,39.29h0l-.25.05,0,0Z" transform="translate(0 0)"/><path d="M37.81,39.11l.13.13h0l.27-.07s0,0,0,0h0L38.09,39h0l-.25,0s0,0,0,0Z" transform="translate(0 0)"/><path d="M38.13,39.51l.12.13h0l.27-.07s0,0,0,0h0l-.14-.12h0l-.25,0,0,0Z" transform="translate(0 0)"/><path d="M37.76,39.61l.11.12h0l.26-.07s0,0,0,0h0L38,39.53h0l-.25.06s0,0,0,0Z" transform="translate(0 0)"/><path d="M38.92,38.84,39,39h0l.28-.07s0,0,0,0h0l-.14-.12h0l-.26,0s0,0,0,0Z" transform="translate(0 0)"/><path d="M38.86,39.09l.12.13h0l.27-.08h0L39.14,39h0l-.26.06h0Z" transform="translate(0 0)"/><path d="M38.5,39.19l.12.13h0l.27-.08a0,0,0,0,0,0,0h0l-.13-.12h0l-.25.06h0Z" transform="translate(0 0)"/><path d="M37.05,39.05l.13.14s0,0,0,0l.28-.06a0,0,0,0,0,0,0h0L37.34,39h0l-.27.06s0,0,0,0Z" transform="translate(0 0)"/><path d="M36.67,39.14l.12.14h0l.28-.06a0,0,0,0,0,0,0h0L37,39.05h0l-.26.07a0,0,0,0,0,0,0Z" transform="translate(0 0)"/><path d="M36.26,39.46l.09.15h0l.32-.07a0,0,0,0,0,0,0h0l-.1-.15h0l-.31.07s0,0,0,0Z" transform="translate(0 0)"/><path d="M34.16,39.52l.31-.08s0,0,0,0l.06.07a0,0,0,0,1,0,0h0l-.33.08s0,0,0,0l0-.08s0,0,0,0Z" transform="translate(0 0)"/><path d="M34.59,39.42l.31-.07h0l.06.07a0,0,0,0,1,0,0h0l-.33.07s0,0,0,0l0-.07a0,0,0,0,1,0,0Z" transform="translate(0 0)"/><path d="M35,39.33l.32-.07h0l.06.07s0,0,0,0h0l-.33.08h0l0-.07s0,0,0,0Z" transform="translate(0 0)"/><path d="M35.42,39.24l.31-.08h0l.06.07s0,0,0,0h0l-.32.08h0l-.05-.08s0,0,0,0Z" transform="translate(0 0)"/><path d="M35.84,39.14l.31-.07h0l.06.07a0,0,0,0,1,0,0h0l-.33.08h0l0-.08s0,0,0,0Z" transform="translate(0 0)"/><path d="M36.24,39.06l.32-.07h0l.05.07s0,0,0,0h0l-.33.07h0l0-.07s0,0,0,0Z" transform="translate(0 0)"/><path d="M36.64,39l.29-.07h0L37,39v0h0l-.29.07h0L36.63,39a0,0,0,0,1,0,0Z" transform="translate(0 0)"/><path d="M37,38.89l.3-.07h0l.06.07s0,0,0,0h0L37.1,39h0L37,38.92a0,0,0,0,1,0,0Z" transform="translate(0 0)"/><path d="M37.41,38.8l.3-.07h0l.07.06a0,0,0,0,1,0,0h0l-.3.08h0l-.07-.06a0,0,0,0,1,0,0Z" transform="translate(0 0)"/><path d="M37.79,38.72l.3-.07h0l.06.06v0h0l-.29.08h0l-.07-.07a0,0,0,0,1,0,0Z" transform="translate(0 0)"/><path d="M38.16,38.63l.3-.07h0l.06.07s0,0,0,0h0l-.3.08h0l-.07-.07v0Z" transform="translate(0 0)"/><path d="M38.52,38.55l.31-.07h0l.07.08s0,0,0,0h0l-.31.07h0l-.07-.07s0,0,0,0Z" transform="translate(0 0)"/><path d="M38.89,38.47l.28-.06h0l.05.07s0,0,0,0h0l-.27.07h0l-.08-.08s0,0,0,0Z" transform="translate(0 0)"/><path d="M39.24,38.39l.28-.06h0l.05.07s0,0,0,0h0l-.27.07h0l-.08-.07s0,0,0,0Z" transform="translate(0 0)"/><path d="M34.38,39.89l.1.15h0l.55-.13s0,0,0,0h0l-.12-.16s0,0,0,0l-.54.13s0,0,0,0Z" transform="translate(0 0)"/><path d="M34.54,40.09l.11.17s0,0,0,0l.66-.16a0,0,0,0,0,0,0h0l-.13-.16s0,0,0,0l-.64.16a0,0,0,0,0,0,0Z" transform="translate(0 0)"/><path d="M34.69,40.32l.13.18h0l.88-.21a0,0,0,0,0,0,0h0l-.14-.18h0l-.87.22s0,0,0,0Z" transform="translate(0 0)"/><path d="M36.7,40.12l.16.19h0l1.93-.48s0,0,0,0h0l-.19-.19h0l-1.9.49s0,0,0,0Z" transform="translate(0 0)"/><path d="M38.7,39.62l.19.19h0l.4-.11h0l-.19-.19h0l-.39.11s0,0,0,0Z" transform="translate(0 0)"/><path d="M39.65,39.5l.09.09h0l.29-.08h0l-.11-.09h0l-.27.08s0,0,0,0Z" transform="translate(0 0)"/><path d="M39.9,39.3l.11.11s0,0,0,0l.27-.09s0,0,0,0h0l-.1-.09h0l-.27.08Z" transform="translate(0 0)"/><path d="M40.1,39.49,40,39.43s0,0,0,0h0l.27-.1h0l.08.09s0,0,0,0h0l-.28.07Z" transform="translate(0 0)"/><path d="M40.38,39.32l.08.09h0l.28-.08s0,0,0,0h0l-.1-.09h0l-.26.09h0Z" transform="translate(0 0)"/><path d="M39.59,39.15l.15.14h0l.72-.18s0,0,0,0h0l-.17-.15h0l-.69.19h0Z" transform="translate(0 0)"/><path d="M39.54,38.93l.16.13h0l.54-.12s0,0,0,0h0l-.18-.15h0l-.52.14a0,0,0,0,0,0,0Z" transform="translate(0 0)"/><path d="M39.59,38.69l.15.13h0l.28-.06v0h0l-.17-.15h0l-.25.08h0Z" transform="translate(0 0)"/><path d="M39.21,38.56l.14.13h0l.44-.11h0l-.17-.14h0l-.41.12h0Z" transform="translate(0 0)"/></g><path class="cls-13" d="M34.24,39.62l.09.15h0l.33-.07s0,0,0,0h0l-.11-.15h0l-.31.07a0,0,0,0,0,0,0Z" transform="translate(0 0)"/><path class="cls-13" d="M34.66,39.53l.1.16a0,0,0,0,0,0,0l.32-.07,0,0h0l-.1-.15h0l-.32.06a0,0,0,0,0,0,0Z" transform="translate(0 0)"/><path class="cls-13" d="M35.07,39.44l.1.16h0l.32-.07a0,0,0,0,0,0,0h0l-.11-.15h0l-.32.06a0,0,0,0,0,0,0Z" transform="translate(0 0)"/><path class="cls-13" d="M35.48,39.35l.09.16h0l.32-.08a0,0,0,0,0,0,0h0l-.11-.14h0l-.31.06,0,0Z" transform="translate(0 0)"/><path class="cls-13" d="M35.44,39.59l.1.16h0l.32-.07a0,0,0,0,0,0,0h0l-.1-.15h0l-.32.06v0Z" transform="translate(0 0)"/><path class="cls-13" d="M35,39.68l.1.15s0,0,0,0l.32-.07,0,0h0l-.1-.15h0l-.31.07s0,0,0,0Z" transform="translate(0 0)"/><path class="cls-13" d="M35.3,39.87l.09.15h0l.33-.07s0,0,0,0h0l-.11-.15h0l-.31.07s0,0,0,0Z" transform="translate(0 0)"/><path class="cls-13" d="M35.68,40l.1.16s0,0,0,0l.32-.07,0,0h0L36,40h0l-.32.07s0,0,0,0Z" transform="translate(0 0)"/><path class="cls-13" d="M35.75,40.3l.15.2h0l.33-.08s0,0,0,0h0l-.16-.2h0l-.32.08s0,0,0,0Z" transform="translate(0 0)"/><path class="cls-13" d="M36.18,40.2l.16.2h0l.43-.12s0,0,0,0h0l-.16-.2h0l-.42.12,0,0Z" transform="translate(0 0)"/><path class="cls-13" d="M35.33,40.41l.16.19h0l.32-.09a0,0,0,0,0,0,0h0l-.16-.19h0l-.32.09s0,0,0,0Z" transform="translate(0 0)"/><path class="cls-13" d="M34.89,40.52l.16.19h0l.32-.08,0,0h0l-.16-.2h0l-.32.09s0,0,0,0Z" transform="translate(0 0)"/><path class="cls-13" d="M35.88,39.26l.1.15s0,0,0,0l.32-.07s0,0,0,0h0l-.11-.15s0,0,0,0l-.31.07s0,0,0,0Z" transform="translate(0 0)"/><path class="cls-13" d="M35.85,39.5l.1.15h0l.32-.07s0,0,0,0h0l-.1-.15h0l-.31.07a0,0,0,0,0,0,0Z" transform="translate(0 0)"/><path class="cls-13" d="M36.27,39.17l.1.15h0l.32-.07,0,0h0l-.1-.15h0l-.31.07,0,0Z" transform="translate(0 0)"/><path class="cls-13" d="M37.42,38.92l.14.14h0l.29-.07s0,0,0,0h0l-.15-.14h0l-.27.06v0Z" transform="translate(0 0)"/><path class="cls-13" d="M37.79,38.84l.14.14h0l.29-.07h0l-.15-.14h0l-.27.07s0,0,0,0Z" transform="translate(0 0)"/><path class="cls-13" d="M37.43,39.15l.14.14h0l.29-.07s0,0,0,0h0l-.15-.14h0l-.27.06v0Z" transform="translate(0 0)"/><path class="cls-13" d="M37.06,39.24l.12.13h0l.28-.07s0,0,0,0h0l-.15-.13h0l-.26.06a0,0,0,0,0,0,0Z" transform="translate(0 0)"/><path class="cls-13" d="M37.34,39.66l.13.14a0,0,0,0,0,0,0l.27-.06a0,0,0,0,0,0,0h0l-.14-.14h0l-.26.06a0,0,0,0,0,0,0Z" transform="translate(0 0)"/><path class="cls-13" d="M37,39.75l.12.14h0l.28-.06a0,0,0,0,0,0,0h0l-.14-.14h0l-.26.06s0,0,0,0Z" transform="translate(0 0)"/><path class="cls-13" d="M36.55,39.85l.12.14h0l.28-.06h0s0,0,0,0l-.14-.13h0l-.26.06a0,0,0,0,0,0,0S36.54,39.85,36.55,39.85Z" transform="translate(0 0)"/><path class="cls-13" d="M36.13,39.93l.13.14h0l.28-.07,0,0h0l-.14-.13h0l-.26.06,0,0Z" transform="translate(0 0)"/><path class="cls-13" d="M37,39.51l.12.13h0l.28-.07s0,0,0,0h0l-.15-.14h0l-.26.06s0,0,0,0Z" transform="translate(0 0)"/><path class="cls-13" d="M36.56,39.59l.13.14h0l.27-.07a0,0,0,0,0,0,0h0l-.14-.14h0l-.26.06s0,0,0,0Z" transform="translate(0 0)"/><path class="cls-13" d="M36.15,39.68l.13.14h0l.28-.06,0,0h0l-.14-.14s0,0,0,0l-.26.06s0,0,0,0Z" transform="translate(0 0)"/><path class="cls-13" d="M35.73,39.78l.13.14h0l.28-.06s0,0,0,0h0L36,39.69h0l-.26.07a0,0,0,0,0,0,0Z" transform="translate(0 0)"/><path class="cls-13" d="M37.34,39.41l.13.14s0,0,0,0l.28-.06a0,0,0,0,0,0,0h0l-.14-.14h0l-.26.06a0,0,0,0,0,0,0Z" transform="translate(0 0)"/><path class="cls-13" d="M36.67,39.34l.12.13h0l.28-.07s0,0,0,0h0L37,39.25h0l-.26.06,0,0Z" transform="translate(0 0)"/><path class="cls-13" d="M38.15,38.74l.14.15h0l.29-.07s0,0,0,0h0l-.16-.15h0l-.28.07s0,0,0,0Z" transform="translate(0 0)"/><path class="cls-13" d="M38.5,38.67l.14.14h0l.29-.07s0,0,0,0h0l-.16-.15h0l-.28.07h0Z" transform="translate(0 0)"/><path class="cls-13" d="M38.87,38.58l.13.14h0l.28-.08s0,0,0,0h0l-.14-.12h0l-.26.06h0Z" transform="translate(0 0)"/><path class="cls-13" d="M39.26,38.71l.12.14h0l.28-.07s0,0,0,0h0l-.14-.12h0l-.26.06Z" transform="translate(0 0)"/><path class="cls-13" d="M39.21,39l.12.13h0l.26-.08,0,0h0l-.13-.12h0l-.25,0s0,0,0,0Z" transform="translate(0 0)"/><path class="cls-13" d="M38.9,39.28l.12.13s0,0,0,0l.27-.07s0,0,0,0h0l-.14-.11h0l-.25.06s0,0,0,0Z" transform="translate(0 0)"/><path class="cls-13" d="M38.52,39.38l.12.13h0l.26-.07s0,0,0,0h0l-.14-.11h0l-.25.06s0,0,0,0Z" transform="translate(0 0)"/><path class="cls-13" d="M39.25,39.19l.12.13h0l.27-.07a0,0,0,0,0,0,0h0l-.13-.11h0l-.25.06s0,0,0,0Z" transform="translate(0 0)"/><path class="cls-13" d="M39.19,39.47l.18.16h0l.26-.07s0,0,0,0h0l-.2-.17h0l-.25.08a0,0,0,0,0,0,0Z" transform="translate(0 0)"/><path class="cls-13" d="M38.55,38.89l.13.14h0L39,39s0,0,0,0h0l-.15-.11h0l-.26,0v0Z" transform="translate(0 0)"/><path class="cls-13" d="M38.2,39l.12.13h0L38.6,39s0,0,0,0h0l-.13-.11h0L38.2,39v0Z" transform="translate(0 0)"/><path class="cls-13" d="M38.12,39.23l.12.13h0l.27-.07v0h0l-.13-.11h0l-.25.05s0,0,0,0Z" transform="translate(0 0)"/><path class="cls-13" d="M37.75,39.32l.12.13h0l.27-.07s0,0,0,0h0L38,39.24h0l-.25,0a0,0,0,0,0,0,0Z" transform="translate(0 0)"/><path class="cls-13" d="M37.81,39.06l.13.13a0,0,0,0,0,0,0l.27-.08s0,0,0,0h0L38.09,39h0l-.25.05v0Z" transform="translate(0 0)"/><path class="cls-13" d="M38.13,39.46l.12.13h0l.27-.08a0,0,0,0,0,0,0h0l-.14-.12h0l-.25.06h0Z" transform="translate(0 0)"/><path class="cls-13" d="M37.76,39.56l.11.13h0l.26-.07s0,0,0,0h0L38,39.48h0l-.25.05s0,0,0,0Z" transform="translate(0 0)"/><path class="cls-13" d="M38.92,38.8l.12.13h0l.28-.08h0l-.14-.12h0l-.26.06s0,0,0,0Z" transform="translate(0 0)"/><path class="cls-13" d="M38.86,39l.12.14h0l.27-.07v0h0L39.14,39h0l-.25.06s0,0,0,0Z" transform="translate(0 0)"/><path class="cls-13" d="M38.5,39.14l.12.13h0l.27-.07s0,0,0,0h0l-.13-.11h0l-.25.06s0,0,0,0Z" transform="translate(0 0)"/><path class="cls-13" d="M37.05,39l.13.14h0l.28-.06a0,0,0,0,0,0,0h0l-.15-.14h0l-.27.06a0,0,0,0,0,0,0Z" transform="translate(0 0)"/><path class="cls-13" d="M36.67,39.09l.12.14h0l.28-.07a0,0,0,0,0,0,0h0L37,39h0l-.26.06s0,0,0,0Z" transform="translate(0 0)"/><path class="cls-13" d="M36.26,39.41l.09.15s0,0,0,0l.32-.07a0,0,0,0,0,0,0h0l-.1-.15h0l-.31.06,0,0Z" transform="translate(0 0)"/><path class="cls-13" d="M34.16,39.47l.31-.07h0l.06.08a0,0,0,0,1,0,0h0l-.33.08h0l0-.08s0,0,0,0Z" transform="translate(0 0)"/><path class="cls-13" d="M34.59,39.37l.31-.07s0,0,0,0l.06.07s0,0,0,0h0l-.33.08h0l0-.08s0,0,0,0Z" transform="translate(0 0)"/><path class="cls-13" d="M35,39.28l.32-.07h0l.06.07s0,0,0,0h0l-.33.08h0l0-.08a0,0,0,0,1,0,0Z" transform="translate(0 0)"/><path class="cls-13" d="M35.42,39.19l.31-.07h0l.06.08s0,0,0,0h0l-.32.07h0l-.05-.07a0,0,0,0,1,0,0Z" transform="translate(0 0)"/><path class="cls-13" d="M35.84,39.1l.31-.07h0l.06.07a0,0,0,0,1,0,0h0l-.33.08h0l0-.07s0,0,0,0Z" transform="translate(0 0)"/><path class="cls-13" d="M36.24,39l.32-.07h0l.05.07a0,0,0,0,1,0,0h0l-.33.08h0l0-.08s0,0,0,0Z" transform="translate(0 0)"/><path class="cls-13" d="M36.64,38.93l.29-.07h0l.06.06v0h0l-.29.07h0L36.63,39a0,0,0,0,1,0,0Z" transform="translate(0 0)"/><path class="cls-13" d="M37,38.84l.3-.07h0l.06.07s0,0,0,0h0l-.29.08h0L37,38.87a0,0,0,0,1,0,0Z" transform="translate(0 0)"/><path class="cls-13" d="M37.41,38.75l.3-.07h0l.07.07v0h0l-.3.08h0l-.07-.07v0Z" transform="translate(0 0)"/><path class="cls-13" d="M37.79,38.67l.3-.07h0l.06.06v0h0l-.29.08s0,0,0,0l-.07-.06v0Z" transform="translate(0 0)"/><path class="cls-13" d="M38.16,38.59l.3-.08h0l.06.07s0,0,0,0h0l-.3.08h0l-.07-.07a0,0,0,0,1,0,0Z" transform="translate(0 0)"/><path class="cls-13" d="M38.52,38.51l.31-.08h0l.07.07s0,0,0,0h0l-.31.08h0l-.07-.08s0,0,0,0Z" transform="translate(0 0)"/><path class="cls-13" d="M38.89,38.42l.28-.06h0l.05.07s0,0,0,0h0l-.27.07h0l-.08-.08h0Z" transform="translate(0 0)"/><path class="cls-13" d="M39.24,38.34l.28-.06h0l.05.07s0,0,0,0h0l-.27.07h0l-.08-.08h0Z" transform="translate(0 0)"/><path class="cls-13" d="M34.38,39.85l.1.15h0l.55-.12s0,0,0,0h0l-.12-.15a0,0,0,0,0,0,0l-.54.13s0,0,0,0Z" transform="translate(0 0)"/><path class="cls-13" d="M34.54,40.05l.11.16h0l.66-.16a0,0,0,0,0,0,0h0l-.13-.17h0l-.64.15s0,0,0,0Z" transform="translate(0 0)"/><path class="cls-13" d="M34.69,40.27l.13.18h0l.88-.22s0,0,0,0h0L35.59,40h0l-.87.22s0,0,0,0Z" transform="translate(0 0)"/><path class="cls-13" d="M36.7,40.07l.16.19h0l1.93-.48s0,0,0,0h0l-.19-.2h0l-1.9.49s0,0,0,0Z" transform="translate(0 0)"/><path class="cls-13" d="M38.7,39.57l.19.19h0l.4-.1v0h0l-.19-.19h0l-.39.11s0,0,0,0Z" transform="translate(0 0)"/><path class="cls-13" d="M39.65,39.45l.09.09h0l.29-.07v0h0l-.11-.1h0l-.27.09h0a0,0,0,0,0,0,0Z" transform="translate(0 0)"/><path class="cls-13" d="M39.9,39.26l.11.1h0l.27-.09s0,0,0,0h0l-.1-.09h0l-.27.07s0,0,0,0Z" transform="translate(0 0)"/><path class="cls-13" d="M40.1,39.44,40,39.38a0,0,0,0,1,0,0h0l.27-.09h0l.08.08s0,0,0,0h0l-.28.07Z" transform="translate(0 0)"/><path class="cls-13" d="M40.38,39.28l.08.08h0l.28-.08s0,0,0,0h0l-.1-.09h0l-.26.09s0,0,0,0Z" transform="translate(0 0)"/><path class="cls-13" d="M39.59,39.1l.15.14h0l.72-.18v0h0l-.18-.15h0l-.69.19a0,0,0,0,0,0,0Z" transform="translate(0 0)"/><path class="cls-13" d="M39.54,38.88l.16.14h0l.54-.13h0l-.18-.15h0l-.52.14s0,0,0,0Z" transform="translate(0 0)"/><path class="cls-13" d="M39.59,38.64l.15.13h0l.28-.07h0l-.17-.15h0l-.25.08v0Z" transform="translate(0 0)"/><path class="cls-13" d="M39.21,38.51l.14.13h0l.44-.11h0l-.17-.14h0l-.41.12h0Z" transform="translate(0 0)"/><path class="cls-8" d="M35.39,31.69c-.27.32-.52.66-.76,1a2.59,2.59,0,0,1-.31.41c-.16.17-.36.3-.53.47a3.13,3.13,0,0,0-.46.68,3.23,3.23,0,0,0-.25.49A2.41,2.41,0,0,0,33,36.33c.05.19.15.4.34.44a.57.57,0,0,0,.43-.12,1,1,0,0,0,.37-.32,1.14,1.14,0,0,0,.11-.4l.17-1.21a1.53,1.53,0,0,1,.08-.37,1.13,1.13,0,0,1,.5-.49c.21-.11.43-.19.63-.32s.34-.28.52-.4a6.17,6.17,0,0,0,.7-.42A.6.6,0,0,0,37,32a.76.76,0,0,0-.23-.24l-.4-.33c-.09-.07-.26-.28-.37-.29s-.27.15-.35.22A2.27,2.27,0,0,0,35.39,31.69Z" transform="translate(0 0)"/><path class="cls-2" d="M34,29.86a1,1,0,0,1,.25.06c.09,0,.16.08.24.11l.33.08a.43.43,0,0,1,.28.18.8.8,0,0,0-.46.29,1.54,1.54,0,0,0-.2.38,4.55,4.55,0,0,0-.25,1.26c0,.08,0,.17.06.21a1.57,1.57,0,0,0-1-.2.16.16,0,0,1-.1,0,.16.16,0,0,1-.09-.07.85.85,0,0,1-.19-.42,2.18,2.18,0,0,1,.06-.67,2.74,2.74,0,0,0,.08-.64,2.51,2.51,0,0,0-.1-.61c0-.25.24-.13.39-.1Z" transform="translate(0 0)"/></svg>