<svg id="Layer_1" data-name="Layer 1" xmlns="http://www.w3.org/2000/svg" viewBox="0 0 77.99 78"><defs><style>.cls-1{fill:#85d1a0;}.cls-2{fill:#6255a5;}.cls-3{fill:#f0f0f0;}.cls-4{fill:#fff;}.cls-5{fill:#cacaca;}.cls-6{fill:#3f3d56;}.cls-7{fill:#e4e4e4;}.cls-8{fill:#ffb6b6;}.cls-9{fill:#2f2e41;}.cls-10{fill:#9f616a;}.cls-11{fill:#a0616a;}.cls-12{fill:#cbcbcb;}</style></defs><title>in blog</title><path class="cls-1" d="M66,1a1,1,0,0,0,0,2,1,1,0,0,0,1-1,1,1,0,0,0-.3-.7A1,1,0,0,0,66,1Z" transform="translate(0 0)"/><path class="cls-1" d="M39,2A37,37,0,1,0,65.16,12.84,37,37,0,0,0,39,2Z" transform="translate(0 0)"/><path class="cls-1" d="M72,0a4,4,0,1,0,2.83,1.17A4,4,0,0,0,72,0Z" transform="translate(0 0)"/><path class="cls-1" d="M76,11a2,2,0,1,0,2,2,2,2,0,0,0-.58-1.42A2,2,0,0,0,76,11Z" transform="translate(0 0)"/><path class="cls-2" d="M70,63a2,2,0,1,0,2,2,2,2,0,0,0-.58-1.42A2,2,0,0,0,70,63ZM4,48a4,4,0,1,0,2.83,1.17A4,4,0,0,0,4,48Z" transform="translate(0 0)"/><path class="cls-1" d="M14,74a2,2,0,1,0,2,2,2,2,0,0,0-.58-1.42A2,2,0,0,0,14,74Z" transform="translate(0 0)"/><path class="cls-2" d="M4.5,37a2.49,2.49,0,1,0,1.77.73A2.51,2.51,0,0,0,4.5,37Zm61-17a1.5,1.5,0,1,0,1.06.44A1.5,1.5,0,0,0,65.5,20Z" transform="translate(0 0)"/><path class="cls-3" d="M17.28,52.11a3.93,3.93,0,0,1,2.4-3.26,6.57,6.57,0,0,0,0,4.5A2.68,2.68,0,0,1,20,55.08a1.52,1.52,0,0,1-.75.79,4,4,0,0,1-1.07.32l-.07.06A8.07,8.07,0,0,1,17.28,52.11Z" transform="translate(0 0)"/><path class="cls-4" d="M19.7,48.87A5.59,5.59,0,0,0,18.3,52a2.43,2.43,0,0,0,0,.76,1.44,1.44,0,0,0,.35.64,3.18,3.18,0,0,1,.44.53.83.83,0,0,1,0,.69,2,2,0,0,1-.49.73,2.1,2.1,0,0,0-.54.81s-.07,0-.06,0c.16-.55.7-.87,1-1.37a.89.89,0,0,0,.06-.76,2.53,2.53,0,0,0-.44-.55,1.46,1.46,0,0,1-.36-.61,2.38,2.38,0,0,1-.06-.75,5.64,5.64,0,0,1,1.43-3.3s.06,0,0,0Z" transform="translate(0 0)"/><path class="cls-4" d="M18.32,51.65a.84.84,0,0,1-.64-.88s.07,0,.06,0a.78.78,0,0,0,.6.82S18.36,51.66,18.32,51.65Z" transform="translate(0 0)"/><path class="cls-4" d="M18.59,53.35a1.63,1.63,0,0,0,.72-.93s.07,0,.06,0a1.67,1.67,0,0,1-.76,1s-.06,0,0-.06Z" transform="translate(0 0)"/><path class="cls-4" d="M18.93,49.93a.5.5,0,0,0,.46,0s.06,0,0,.05a.55.55,0,0,1-.5,0,.05.05,0,0,1,0,0s0,0,0,0Z" transform="translate(0 0)"/><path class="cls-3" d="M23.79,51.37l-.06,0a6.92,6.92,0,0,0-.8.63l-.06.05a6.67,6.67,0,0,0-1.44,2,5.89,5.89,0,0,0-.35.91,4.35,4.35,0,0,1-.49,1.26l-.09.11H18.07v-.08h0v0c0-.09,0-.19.07-.28h0a9.12,9.12,0,0,1,.8-2.09l0-.06a5.68,5.68,0,0,1,.55-.83,3.52,3.52,0,0,1,.36-.41A4.47,4.47,0,0,1,21,51.69a3.55,3.55,0,0,1,2.68-.34Z" transform="translate(0 0)"/><path class="cls-4" d="M23.79,51.4a5.66,5.66,0,0,0-3,1.68,2.65,2.65,0,0,0-.43.62,1.38,1.38,0,0,0-.11.72,2.74,2.74,0,0,1,0,.7.84.84,0,0,1-.38.57,2.06,2.06,0,0,1-.83.29,2.16,2.16,0,0,0-.92.32s-.07,0,0,0c.47-.35,1.09-.27,1.6-.52a.84.84,0,0,0,.5-.57,2.35,2.35,0,0,0,0-.7,1.56,1.56,0,0,1,.08-.71,2.21,2.21,0,0,1,.41-.63A5.47,5.47,0,0,1,22,52a5.85,5.85,0,0,1,1.81-.69s0,0,0,.06Z" transform="translate(0 0)"/><path class="cls-4" d="M21,52.79a.82.82,0,0,1,0-1.09s.07,0,0,0a.77.77,0,0,0,0,1s0,.07-.05,0Z" transform="translate(0 0)"/><path class="cls-4" d="M20.2,54.31A1.64,1.64,0,0,0,21.34,54s.07,0,0,0a1.69,1.69,0,0,1-1.19.32s0-.07,0-.06Z" transform="translate(0 0)"/><path class="cls-4" d="M22.54,51.78a.49.49,0,0,0,.38.26s0,.06,0,.06a.53.53,0,0,1-.42-.28s0,0,0,0Z" transform="translate(0 0)"/><path class="cls-3" d="M59.08,52.61A3.39,3.39,0,0,0,57,49.79a5.66,5.66,0,0,1,0,3.89,2.3,2.3,0,0,0-.26,1.5,1.31,1.31,0,0,0,.65.68,3.94,3.94,0,0,0,.92.28l.06,0A6.86,6.86,0,0,0,59.08,52.61Z" transform="translate(0 0)"/><path class="cls-4" d="M57,49.81a4.81,4.81,0,0,1,1.2,2.73,2.09,2.09,0,0,1,0,.66,1.19,1.19,0,0,1-.3.55,2.39,2.39,0,0,0-.38.46.74.74,0,0,0,0,.6,2,2,0,0,0,.42.63,1.84,1.84,0,0,1,.47.7s.06,0,.06,0c-.14-.48-.61-.75-.84-1.19a.78.78,0,0,1-.05-.65,2,2,0,0,1,.39-.47,1.39,1.39,0,0,0,.31-.54,2,2,0,0,0,0-.65,4.76,4.76,0,0,0-.35-1.43A5,5,0,0,0,57,49.77s-.06,0,0,0Z" transform="translate(0 0)"/><path class="cls-4" d="M58.18,52.21a.71.71,0,0,0,.55-.76,0,0,0,0,0,0,0,.66.66,0,0,1-.52.71s0,.06,0,.05Z" transform="translate(0 0)"/><path class="cls-4" d="M58,53.69a1.45,1.45,0,0,1-.63-.81s-.06,0,0,0a1.44,1.44,0,0,0,.66.83s0,0,0,0Z" transform="translate(0 0)"/><path class="cls-4" d="M57.65,50.72a.41.41,0,0,1-.39,0s0,0,0,0a.47.47,0,0,0,.43,0s0,0,0,0,0,0,0,0Z" transform="translate(0 0)"/><path class="cls-3" d="M53.45,52l0,0a5.22,5.22,0,0,1,.7.54s0,0,0,.05a5.82,5.82,0,0,1,1.24,1.7,5.24,5.24,0,0,1,.3.78,3.76,3.76,0,0,0,.43,1.09l.07.09H58.4v-.07h0l-.06-.25h0a8.17,8.17,0,0,0-.69-1.8l0,0a5,5,0,0,0-.47-.73c-.1-.12-.2-.24-.31-.35a3.85,3.85,0,0,0-1-.73,3.1,3.1,0,0,0-2.32-.3Z" transform="translate(0 0)"/><path class="cls-4" d="M53.45,52a4.93,4.93,0,0,1,2.61,1.45,2,2,0,0,1,.37.54,1.2,1.2,0,0,1,.1.62,2.42,2.42,0,0,0,0,.6.73.73,0,0,0,.33.5,2.06,2.06,0,0,0,.72.25,1.86,1.86,0,0,1,.79.27s.06,0,0,0c-.4-.3-.94-.24-1.37-.45a.74.74,0,0,1-.44-.49,2.08,2.08,0,0,1,0-.61,1.26,1.26,0,0,0-.07-.61,2,2,0,0,0-.35-.55A4.65,4.65,0,0,0,55,52.55a4.88,4.88,0,0,0-1.56-.61,0,0,0,0,0,0,.06Z" transform="translate(0 0)"/><path class="cls-4" d="M55.85,53.2a.71.71,0,0,0,0-.94,0,0,0,1,0,0,0,.67.67,0,0,1,0,.88S55.83,53.22,55.85,53.2Z" transform="translate(0 0)"/><path class="cls-4" d="M56.55,54.51a1.38,1.38,0,0,1-1-.27s-.06,0,0,0a1.43,1.43,0,0,0,1,.27s0-.05,0-.05Z" transform="translate(0 0)"/><path class="cls-4" d="M54.53,52.33a.43.43,0,0,1-.32.22s0,.05,0,.05a.47.47,0,0,0,.35-.24,0,0,0,0,0,0,0S54.54,52.32,54.53,52.33Z" transform="translate(0 0)"/><path class="cls-5" d="M63.27,24.82H16a.07.07,0,0,1,0-.14H63.27a.07.07,0,0,1,0,.14Z" transform="translate(0 0)"/><circle class="cls-6" cx="17.57" cy="23.1" r="0.75"/><circle class="cls-6" cx="20.17" cy="23.1" r="0.75"/><circle class="cls-6" cx="22.78" cy="23.1" r="0.75"/><path class="cls-6" d="M61.7,22.81H59.85a.13.13,0,0,1-.13-.14.13.13,0,0,1,.13-.13H61.7a.13.13,0,0,1,.14.13.14.14,0,0,1-.14.14Z" transform="translate(0 0)"/><path class="cls-6" d="M61.7,23.33H59.85a.14.14,0,0,1-.13-.14.13.13,0,0,1,.13-.14H61.7a.14.14,0,0,1,.14.14.14.14,0,0,1-.14.14Z" transform="translate(0 0)"/><path class="cls-6" d="M61.7,23.84H59.85a.13.13,0,0,1-.13-.14.13.13,0,0,1,.13-.13H61.7a.13.13,0,0,1,.14.13.14.14,0,0,1-.14.14Z" transform="translate(0 0)"/><rect class="cls-2" x="51.97" y="27.76" width="9.87" height="5.92"/><path class="cls-7" d="M59.87,36.4H54a.28.28,0,0,1,0-.56h5.87a.28.28,0,0,1,0,.56Z" transform="translate(0 0)"/><path class="cls-7" d="M58.92,35.45h-4a.28.28,0,0,1,0-.55h4a.28.28,0,1,1,0,.55Z" transform="translate(0 0)"/><rect class="cls-3" x="51.97" y="38.52" width="9.87" height="5.92"/><path class="cls-7" d="M59.87,47.16H54a.28.28,0,1,1,0-.55h5.87a.28.28,0,1,1,0,.55Z" transform="translate(0 0)"/><path class="cls-7" d="M58.92,46.21h-4a.28.28,0,0,1,0-.55h4a.28.28,0,1,1,0,.55Z" transform="translate(0 0)"/><path class="cls-7" d="M46.91,31.91H17.1a.28.28,0,0,1-.27-.28.27.27,0,0,1,.27-.27H46.91a.27.27,0,0,1,.27.27A.28.28,0,0,1,46.91,31.91Z" transform="translate(0 0)"/><path class="cls-7" d="M46.91,34H17.1a.27.27,0,0,1-.27-.27.28.28,0,0,1,.27-.28H46.91a.28.28,0,0,1,.27.28A.27.27,0,0,1,46.91,34Z" transform="translate(0 0)"/><path class="cls-7" d="M46.91,36.1H17.1a.28.28,0,0,1,0-.55H46.91a.28.28,0,0,1,0,.55Z" transform="translate(0 0)"/><path class="cls-7" d="M46.91,38.2H17.1a.28.28,0,0,1,0-.56H46.91a.28.28,0,0,1,0,.56Z" transform="translate(0 0)"/><path class="cls-7" d="M46.91,42.39H17.1a.28.28,0,0,1,0-.55H46.91a.28.28,0,0,1,0,.55Z" transform="translate(0 0)"/><path class="cls-7" d="M46.91,44.49H17.1a.28.28,0,0,1,0-.56H46.91a.28.28,0,0,1,0,.56Z" transform="translate(0 0)"/><path class="cls-7" d="M42,29.8H22a.27.27,0,0,1-.28-.27.28.28,0,0,1,.28-.28H42a.28.28,0,1,1,0,.55Z" transform="translate(0 0)"/><polygon class="cls-8" points="49.63 55.8 50.2 55.8 50.48 53.58 49.63 53.58 49.63 55.8"/><path class="cls-9" d="M49.48,55.62h1.14a.72.72,0,0,1,.72.72v0H49.48Z" transform="translate(0 0)"/><polygon class="cls-8" points="46.68 55.8 47.26 55.8 47.53 53.58 46.68 53.58 46.68 55.8"/><path class="cls-9" d="M46.54,55.62h1.13a.72.72,0,0,1,.72.72v0H46.54Z" transform="translate(0 0)"/><path class="cls-8" d="M53.41,31a.66.66,0,0,0-.65-.66.67.67,0,0,0-.66.66.74.74,0,0,0,0,.25l-1.32,2.09L50,35l.68.61.53-.55,1.71-3.43A.64.64,0,0,0,53.41,31Z" transform="translate(0 0)"/><path class="cls-8" d="M46.54,37.91l-1.3-.2-.31,2.35-1.68,3.62a.65.65,0,1,0,.9.21l1.76-3.18Z" transform="translate(0 0)"/><path class="cls-9" d="M47.26,41.82s-1.14,1.06-1,3.71l.32,4.1-.08,5.72,1.17-.1,1-9.57,1,3.92-.35,5.23,1.13,0L51.64,49l-.28-4.38-.47-2.75Z" transform="translate(0 0)"/><path class="cls-2" d="M48.48,35.64l-2.73.77,1.39,4.15-.21,1.59,4.21,0-1-3.08a2,2,0,0,0-.07-1.91Z" transform="translate(0 0)"/><path class="cls-2" d="M48.15,36.3l.33-.66s0-.16.76-.24l.9-.9.83.82-1.4,2.07Z" transform="translate(0 0)"/><path class="cls-2" d="M46.84,37s-1-1.09-1.52-.54-.27,2.27-.27,2.27l1.7.27Z" transform="translate(0 0)"/><path id="a1b14455-bb06-4eca-a63d-5bd2b70c7569-681" class="cls-8" d="M47.34,32.76a1.28,1.28,0,0,1,0,2.55A1.28,1.28,0,0,1,47.34,32.76Z" transform="translate(0 0)"/><path class="cls-9" d="M47.53,34a1.9,1.9,0,0,0,.72.3.63.63,0,0,0,.66-.32.8.8,0,0,0,.05-.26,1.73,1.73,0,0,0-.44-1.25,1.58,1.58,0,0,0-1.21-.51,3,3,0,0,0-1.21.42,2.11,2.11,0,0,0-.92.74,3.08,3.08,0,0,0,0,1.73,3.26,3.26,0,0,1-.79,2.43l2.38.23a2.82,2.82,0,0,0,.87,0,1.39,1.39,0,0,0,1.05-1.66,1.37,1.37,0,0,0-.39-.69c-.34-.33-.88-.56-.89-1" transform="translate(0 0)"/><polygon class="cls-10" points="65.25 55.75 64.62 55.75 64.32 53.32 65.25 53.32 65.25 55.75"/><path class="cls-9" d="M65.42,56.36h-2v0a.8.8,0,0,1,.79-.8h1.25Z" transform="translate(0 0)"/><polygon class="cls-10" points="71.12 55.75 70.49 55.75 70.19 53.32 71.12 53.32 71.12 55.75"/><path class="cls-9" d="M71.28,56.36h-2v0a.79.79,0,0,1,.79-.8h1.24Z" transform="translate(0 0)"/><path class="cls-9" d="M65,43.4a6.76,6.76,0,0,0-.45,2c.08.61-.53,4.84-.45,5.22s-.08,2.27,0,2.58-.22.66-.07,1a9.15,9.15,0,0,1,.37.93l1-.08.15-.83a.45.45,0,0,0,.38-.53,34.21,34.21,0,0,1,.38-3.48L67.58,46l1.81,3.86a16.33,16.33,0,0,0,.3,3c.23.3-.22,1.13,0,1.44a4.93,4.93,0,0,1,.46.83h1.13v-.61s.69-.38,0-1.51l-.46-6.82-.45-3.1Z" transform="translate(0 0)"/><circle class="cls-11" cx="67.82" cy="32.47" r="1.41"/><path class="cls-9" d="M66.62,32.37l.3.77a1.52,1.52,0,0,0,.55.82,1.11,1.11,0,0,0,1.17-.12,1.82,1.82,0,0,0-.82-3.33v.25l-.32-.26a.32.32,0,0,1-.42.11l0,0a.48.48,0,0,1-.15.51c-.17.16-.66.35-.64.64S66.54,32.17,66.62,32.37Z" transform="translate(0 0)"/><path class="cls-10" d="M71.71,45.49a.59.59,0,0,0-.16-.83l-.09,0,0-1.37L70.66,43V45a.6.6,0,0,0,.36.77A.59.59,0,0,0,71.71,45.49Z" transform="translate(0 0)"/><path class="cls-6" d="M68.87,34.76a3.07,3.07,0,0,0-2.13-.19,6.14,6.14,0,0,0-1.58.8l.67,3.52-.91,4.75s4.68-.36,5.11,0,.43-.43.43-.43l-.37-4.5.67-2.86Z" transform="translate(0 0)"/><path class="cls-10" d="M64.25,45.57a.59.59,0,0,0,.08-.84l-.08-.08.41-1.3-.73-.44-.55,1.85a.6.6,0,0,0,.87.81Z" transform="translate(0 0)"/><path class="cls-6" d="M65.59,35.37h-.43a1.44,1.44,0,0,0-.67,1c0,.61-1,7.73-1,7.73l1,.18.92-5L66.14,38Z" transform="translate(0 0)"/><path class="cls-6" d="M69.6,35.85h1.16a2.55,2.55,0,0,1,.55,1.22c.18.85.36,4.2.36,4.2l-.12,3h-.91l-.12-4-.61-2.56Z" transform="translate(0 0)"/><path class="cls-10" d="M16,39.9l-.09.05-2.7-1.06-.11-.7-1.08,0,.07,1.25a.47.47,0,0,0,.37.43l3.22.75a.61.61,0,1,0,1.16-.39.61.61,0,0,0-.77-.39l-.07,0Z" transform="translate(0 0)"/><polygon class="cls-10" points="11.95 55.67 12.67 55.67 13.01 52.9 11.95 52.9 11.95 55.67"/><path class="cls-9" d="M11.77,55.43h1.41a.91.91,0,0,1,.91.9v0H11.77Z" transform="translate(0 0)"/><polygon class="cls-10" points="8.49 55.67 9.21 55.67 9.55 52.9 8.49 52.9 8.49 55.67"/><path class="cls-9" d="M8.31,55.43H9.73a.91.91,0,0,1,.9.9v0H8.31Z" transform="translate(0 0)"/><path class="cls-9" d="M8.91,34.54a3.87,3.87,0,0,1,0-2.58,1.67,1.67,0,0,1,1.83-.52,2,2,0,0,1,1.15,1.29,4.2,4.2,0,0,1,.08,1.8C10.94,34.51,9.9,34.49,8.91,34.54Z" transform="translate(0 0)"/><circle class="cls-10" cx="10.67" cy="33.32" r="1.22"/><path class="cls-9" d="M9.19,33.07A1.53,1.53,0,1,1,12.24,33v.1C11.2,33.11,10.16,33.12,9.19,33.07Z" transform="translate(0 0)"/><path class="cls-9" d="M9.66,39l-.51.85a11.55,11.55,0,0,0-1.31,4.78l.31,2.7L7.81,48,8,49.19,7.62,50l.76,4,0,.87H9.64L9.58,54l.52-3.92.87-4.2.45,3.62-.16.91.21.76.29,2.35,0,1.13,1.11.13.42-4.19.25-2-1.3-8.88Z" transform="translate(0 0)"/><path class="cls-12" d="M9.5,34.93l-.76.33L8.32,37l.89,2.29-.33,1.15c1,1.74,2.27,2,3.75.88a4,4,0,0,1,0-2.71A1.36,1.36,0,0,0,12.91,37l-.52-1.41-.64-.32Z" transform="translate(0 0)"/><path class="cls-12" d="M12.24,35.87l.17-.32a.88.88,0,0,1,.64.61,18.7,18.7,0,0,1,.23,2.76l-1,0Z" transform="translate(0 0)"/><path class="cls-2" d="M36,35.84,7.09,43.28a.28.28,0,0,1-.34-.2.27.27,0,0,1,.2-.33l28.86-7.44a.28.28,0,0,1,.34.2.27.27,0,0,1-.2.33Z" transform="translate(0 0)"/><path class="cls-10" d="M8.43,43.36a.63.63,0,0,0,.29-.84l-.06-.1.47-4.6h-1l-.37,4.49a.64.64,0,0,0-.07.9.63.63,0,0,0,.76.15Z" transform="translate(0 0)"/><path class="cls-12" d="M9.36,35.78,9,35.27s-.63-.42-.95.56a10.86,10.86,0,0,0-.27,2.79l1.22.5Z" transform="translate(0 0)"/><path class="cls-5" d="M28.62,56.41H1.08A.08.08,0,0,1,1,56.34a.09.09,0,0,1,.08-.08H28.62a.08.08,0,0,1,.07.08A.07.07,0,0,1,28.62,56.41Z" transform="translate(0 0)"/><path class="cls-5" d="M72,56.41H44.45a.07.07,0,0,1-.07-.07.08.08,0,0,1,.07-.08H72a.08.08,0,0,1,.07.08A.07.07,0,0,1,72,56.41Z" transform="translate(0 0)"/></svg>