<svg id="Layer_1" data-name="Layer 1" xmlns="http://www.w3.org/2000/svg" viewBox="0 0 77.99 78"><defs><style>.cls-1{fill:#85d1a0;}.cls-2{fill:#6255a5;}.cls-3{fill:#f2f2f2;}.cls-4{fill:#fff;}.cls-5{fill:#ccc;}.cls-6{fill:#ffb6b6;}.cls-7{fill:#2f2e41;}.cls-8{fill:#e4e4e4;}.cls-9{opacity:0.1;isolation:isolate;}.cls-10{fill:#cacaca;}</style></defs><title>internship porrtal</title><path class="cls-1" d="M66,1a1,1,0,0,0,0,2,1,1,0,0,0,1-1,1,1,0,0,0-.3-.7A1,1,0,0,0,66,1Z" transform="translate(0 0)"/><path class="cls-1" d="M39,2A37,37,0,1,0,65.16,12.84,37,37,0,0,0,39,2Z" transform="translate(0 0)"/><path class="cls-1" d="M72,0a4,4,0,1,0,2.83,1.17A4,4,0,0,0,72,0Z" transform="translate(0 0)"/><path class="cls-1" d="M76,11a2,2,0,1,0,2,2,2,2,0,0,0-.58-1.42A2,2,0,0,0,76,11Z" transform="translate(0 0)"/><path class="cls-2" d="M70,63a2,2,0,1,0,2,2,2,2,0,0,0-.58-1.42A2,2,0,0,0,70,63ZM4,48a4,4,0,1,0,2.83,1.17A4,4,0,0,0,4,48Z" transform="translate(0 0)"/><path class="cls-1" d="M14,74a2,2,0,1,0,2,2,2,2,0,0,0-.58-1.42A2,2,0,0,0,14,74Z" transform="translate(0 0)"/><path class="cls-2" d="M7.5,38a2.49,2.49,0,1,0,1.77.73A2.51,2.51,0,0,0,7.5,38Zm61-17a1.5,1.5,0,1,0,1.06.44A1.5,1.5,0,0,0,68.5,21Z" transform="translate(0 0)"/><path class="cls-3" d="M52.83,67.6l-.2.21H44.58l-.2-.21h0a8.87,8.87,0,0,1-1.77-3.87l-.06-.27c-.09-.42-.16-.84-.22-1.26l0-.21c-.08-.6-.14-1.19-.17-1.75V60a28.29,28.29,0,0,1,0-3.32h0l.41,0c.58,0,1.67.13,3,.34l.21,0a23.16,23.16,0,0,1,3.19.77l.19.07h0l.8,4,.34-3.57c.26.12.52.24.76.38l.21.11a6.24,6.24,0,0,1,1.51,1.2C55.33,63,54.76,65.58,52.83,67.6Z" transform="translate(0 0)"/><path class="cls-4" d="M49.47,62.5l.14.16a11.16,11.16,0,0,1,2.87,5,.17.17,0,0,1,0,.07l-.1,0-.1,0a11,11,0,0,0-2.83-5l-.14-.15c-.6-.66-1.25-1.3-1.9-1.89l-.16-.14c-.86-.78-1.74-1.48-2.51-2.08l-.17-.12c-1.32-1-2.34-1.66-2.57-1.81l0,0L42,56.5h0l0-.08.15.09c.36.23,1.31.86,2.5,1.76l.16.12c.64.48,1.33,1,2,1.64l.52.45.15.14C48.28,61.26,48.91,61.89,49.47,62.5Z" transform="translate(0 0)"/><path class="cls-4" d="M45.56,56.88l-.07.18a5.9,5.9,0,0,1-.77,1.21l-.14.16a5.29,5.29,0,0,1-.41.41A5.51,5.51,0,0,1,42.11,60L42,60c0,.07,0,.14,0,.21l.07,0A5.69,5.69,0,0,0,44.31,59a6.09,6.09,0,0,0,.44-.44s.09-.1.13-.16a5.49,5.49,0,0,0,.82-1.3c0-.05,0-.11.07-.17Z" transform="translate(0 0)"/><path class="cls-4" d="M48.92,57.71l0,.15a5.52,5.52,0,0,1-1.47,2.62l-.16.15,0,0A5.55,5.55,0,0,1,42.29,62l-.06,0,0,.22h.06a5.74,5.74,0,0,0,5-1.36l.07-.06.15-.15a5.74,5.74,0,0,0,1.51-2.68,1.24,1.24,0,0,0,0-.16Z" transform="translate(0 0)"/><path class="cls-4" d="M51,58.61v.15a5.49,5.49,0,0,1-1.51,3.74l-.15.16-.17.16a5.58,5.58,0,0,1-6.61.63l0,0a2.29,2.29,0,0,0,.07.28l0,0A5.77,5.77,0,0,0,49.29,63l.17-.16.15-.15a5.81,5.81,0,0,0,1.58-3.79v-.14Z" transform="translate(0 0)"/><path class="cls-4" d="M33.15,20.2H17.63a.49.49,0,0,1-.48-.49V7.93a.49.49,0,0,1,.48-.48h19a.49.49,0,0,1,.49.48v8.25A4,4,0,0,1,33.15,20.2Z" transform="translate(0 0)"/><path class="cls-5" d="M33.15,20.24H17.63a.53.53,0,0,1-.53-.53V7.93a.53.53,0,0,1,.53-.53h19a.53.53,0,0,1,.53.53v8.25A4.05,4.05,0,0,1,33.15,20.24ZM17.63,7.58a.35.35,0,0,0-.35.35V19.71a.36.36,0,0,0,.35.36H33.15A3.89,3.89,0,0,0,37,16.18V7.93a.36.36,0,0,0-.36-.35Z" transform="translate(0 0)"/><path class="cls-5" d="M32.91,11.42H21.4A.39.39,0,0,1,21,11a.4.4,0,0,1,.4-.4H32.91a.4.4,0,0,1,.4.4A.39.39,0,0,1,32.91,11.42Z" transform="translate(0 0)"/><path class="cls-5" d="M32.91,14.17H21.4a.4.4,0,0,1,0-.8H32.91a.4.4,0,0,1,0,.8Z" transform="translate(0 0)"/><path class="cls-5" d="M32.91,17H21.4a.4.4,0,0,1-.4-.4.39.39,0,0,1,.4-.39H32.91a.39.39,0,0,1,.4.39.4.4,0,0,1-.4.4Z" transform="translate(0 0)"/><circle class="cls-2" cx="36.53" cy="7.97" r="2.38"/><path class="cls-4" d="M36.21,9.21A.27.27,0,0,1,36,9.1l-.65-.86a.28.28,0,0,1,.06-.38.27.27,0,0,1,.37.06h0l.42.56,1.09-1.63a.27.27,0,0,1,.37-.08.26.26,0,0,1,.07.37l-1.29,2a.3.3,0,0,1-.22.12Z" transform="translate(0 0)"/><path class="cls-4" d="M27.42,30.43H11.91a4,4,0,0,1-4-4V18.16a.47.47,0,0,1,.48-.48h19a.48.48,0,0,1,.49.48V29.94A.49.49,0,0,1,27.42,30.43Z" transform="translate(0 0)"/><path class="cls-5" d="M27.42,30.47H11.91a4.06,4.06,0,0,1-4.06-4.06V18.16a.53.53,0,0,1,.53-.53h19a.53.53,0,0,1,.53.53V29.94A.53.53,0,0,1,27.42,30.47Zm-19-12.66a.35.35,0,0,0-.35.35v8.25a3.89,3.89,0,0,0,3.88,3.89H27.42a.36.36,0,0,0,.35-.36V18.16a.35.35,0,0,0-.35-.35Z" transform="translate(0 0)"/><path class="cls-5" d="M23.66,21.65H12.15a.4.4,0,1,1,0-.79H23.66a.39.39,0,0,1,.4.39.4.4,0,0,1-.4.4Z" transform="translate(0 0)"/><path class="cls-5" d="M23.66,24.4H12.15a.4.4,0,1,1,0-.8H23.66a.4.4,0,0,1,0,.8Z" transform="translate(0 0)"/><path class="cls-5" d="M23.66,27.22H12.15a.4.4,0,0,1-.4-.4.39.39,0,0,1,.4-.39H23.66a.39.39,0,0,1,.4.39.4.4,0,0,1-.4.4Z" transform="translate(0 0)"/><circle class="cls-2" cx="27.44" cy="18.29" r="2.38"/><path class="cls-4" d="M27.12,19.53a.25.25,0,0,1-.21-.11l-.65-.86a.26.26,0,0,1,.42-.32l.42.57,1.1-1.64a.26.26,0,0,1,.44.29h0l-1.3,1.95a.27.27,0,0,1-.22.12Z" transform="translate(0 0)"/><path class="cls-4" d="M46.75,41.41H25a4,4,0,0,1-4-4V25.26a.63.63,0,0,1,.63-.63H46.75a.63.63,0,0,1,.62.63V40.78A.64.64,0,0,1,46.75,41.41Z" transform="translate(0 0)"/><path class="cls-5" d="M46.75,41.45H25A4.07,4.07,0,0,1,21,37.39V25.26a.69.69,0,0,1,.68-.67H46.75a.67.67,0,0,1,.67.67V40.78A.67.67,0,0,1,46.75,41.45ZM21.66,24.76a.5.5,0,0,0-.5.5V37.39A3.88,3.88,0,0,0,25,41.27H46.75a.49.49,0,0,0,.49-.49V25.26a.49.49,0,0,0-.49-.5Z" transform="translate(0 0)"/><path class="cls-5" d="M41.79,29.86H26.62a.53.53,0,0,1-.53-.53.52.52,0,0,1,.53-.52H41.79a.52.52,0,0,1,.52.52.52.52,0,0,1-.52.53Z" transform="translate(0 0)"/><path class="cls-5" d="M41.79,33.47H26.62a.52.52,0,0,1-.53-.52.53.53,0,0,1,.53-.53H41.79a.52.52,0,0,1,.52.53.52.52,0,0,1-.52.52Z" transform="translate(0 0)"/><path class="cls-5" d="M41.79,37.2H26.62a.53.53,0,0,1-.53-.53.52.52,0,0,1,.53-.52H41.79a.51.51,0,0,1,.52.52.52.52,0,0,1-.52.53Z" transform="translate(0 0)"/><circle class="cls-2" cx="46.82" cy="25.58" r="3.01"/><path class="cls-4" d="M46.41,27.15a.31.31,0,0,1-.26-.14l-.83-1.09a.34.34,0,0,1,.07-.47.34.34,0,0,1,.47.06h0l.54.72,1.38-2.07a.34.34,0,0,1,.56.37L46.69,27a.36.36,0,0,1-.27.15Z" transform="translate(0 0)"/><polygon class="cls-6" points="54.63 65.4 53.4 65.81 51.24 61.28 53.05 60.67 54.63 65.4"/><path class="cls-7" d="M55.34,66.48l-4,1.06,0-.05a1,1,0,0,1,.09-1,1.63,1.63,0,0,1,.93-.82h0l.54-.79,1.53.1.35-.11Z" transform="translate(0 0)"/><polygon class="cls-6" points="57.65 66.55 56.36 66.55 55.75 61.57 57.65 61.57 57.65 66.55"/><path class="cls-7" d="M58,67.54H53.82v-.05c0-.44.17-.58.47-.88a1.62,1.62,0,0,1,1.15-.48h0l.76-.58,1.42.58H58Z" transform="translate(0 0)"/><path class="cls-6" d="M47.82,26.62a.94.94,0,0,0,1.11.74l.16-.05,1.49,1.56,1.17-.67L49.61,26a.95.95,0,0,0-1.79.59Z" transform="translate(0 0)"/><polygon class="cls-8" points="57.47 34.45 58.15 33.75 54.26 30.15 50.34 26.66 49.26 28.19 53.36 32.02 57.47 34.45"/><path class="cls-7" d="M55.09,58.09c0-.88,0-1.5,0-2a13.34,13.34,0,0,0-.51-4.39l-.15-.65-.85,2.55a8.06,8.06,0,0,0-.41,2.52L54.51,64H51.83l-2-8.5v-2.6a1,1,0,0,1,0-1.34l.65-3.89.66-5.25h7.23a6.54,6.54,0,0,1,0,5.26V58.09l-.66,7.2h-2Z" transform="translate(0 0)"/><path class="cls-8" d="M58,43l-6.76-.56h0l.54-9.71A3.06,3.06,0,0,1,53.78,30v-.68a.64.64,0,0,1,.64-.63h1a.61.61,0,0,1,.56.35l.49,1,1.82,1.46c.9.73.18,8,.14,8.34L58.86,42a.84.84,0,0,1-.66,1H58Z" transform="translate(0 0)"/><path class="cls-6" d="M50.81,45.6a.94.94,0,0,0,.13-1.32.43.43,0,0,0-.11-.12l.67-2-1.15-.71-.9,2.9a.94.94,0,0,0,.19,1.33.93.93,0,0,0,1.17,0Z" transform="translate(0 0)"/><polygon class="cls-8" points="53.16 31.67 52.23 31.36 50.89 37.36 49.65 43.32 51.51 43.59 52.96 37.25 53.16 31.67"/><circle class="cls-6" cx="54.18" cy="25.88" r="2.22"/><path class="cls-7" d="M51.2,24.79a1.85,1.85,0,0,1,.17-.61.49.49,0,0,0,.65.16,1.87,1.87,0,0,0,.53-.52,2.64,2.64,0,0,1,1.65-1,1.57,1.57,0,0,1,1.61.86.41.41,0,0,1,.51-.08.89.89,0,0,1,.36.43,2.69,2.69,0,0,1,.09,2.17,3.57,3.57,0,0,1-1.65,1.89c-.42.16-.85,0-1.3,0,0-.49.12-1.1.14-1.59a1,1,0,0,0-.17-.77.53.53,0,0,0-.75,0l-.06.07a1.11,1.11,0,0,0-.15-.43.41.41,0,0,0-.39-.2c-.19,0-.31.22-.48.31a.51.51,0,0,1-.57-.14A.77.77,0,0,1,51.2,24.79Z" transform="translate(0 0)"/><polygon class="cls-9" points="54.47 37.23 51.86 42.44 53.82 42.44 54.47 37.23"/><path class="cls-10" d="M72,67.7a.12.12,0,0,1-.11.11H22.05a.1.1,0,0,1-.1-.11.09.09,0,0,1,.1-.1H71.84a.1.1,0,0,1,.11.1Z" transform="translate(0 0)"/></svg>