<svg id="Layer_1" data-name="Layer 1" xmlns="http://www.w3.org/2000/svg" viewBox="0 0 77.99 78"><defs><style>.cls-1{fill:#85d1a0;}.cls-2{fill:#6255a5;}.cls-3{fill:#e6e6e6;}.cls-4{opacity:0.1;isolation:isolate;}.cls-5{fill:#3f3d56;}.cls-6{fill:#f2f2f2;}.cls-7{fill:#2f2e41;}.cls-8{fill:#ffb8b8;}</style></defs><title>job portal</title><path class="cls-1" d="M66,1a1,1,0,0,0,0,2,1,1,0,0,0,1-1,1,1,0,0,0-.3-.7A1,1,0,0,0,66,1Z" transform="translate(0 0)"/><path class="cls-1" d="M39,2A37,37,0,1,0,65.16,12.84,37,37,0,0,0,39,2Z" transform="translate(0 0)"/><path class="cls-1" d="M72,0a4,4,0,1,0,2.83,1.17A4,4,0,0,0,72,0Z" transform="translate(0 0)"/><path class="cls-1" d="M76,11a2,2,0,1,0,2,2,2,2,0,0,0-.58-1.42A2,2,0,0,0,76,11Z" transform="translate(0 0)"/><path class="cls-2" d="M70,63a2,2,0,1,0,2,2,2,2,0,0,0-.58-1.42A2,2,0,0,0,70,63ZM4,48a4,4,0,1,0,2.83,1.17A4,4,0,0,0,4,48Z" transform="translate(0 0)"/><path class="cls-1" d="M14,74a2,2,0,1,0,2,2,2,2,0,0,0-.58-1.42A2,2,0,0,0,14,74Z" transform="translate(0 0)"/><path class="cls-2" d="M7.5,38a2.49,2.49,0,1,0,1.77.73A2.51,2.51,0,0,0,7.5,38Zm61-17a1.5,1.5,0,1,0,1.06.44A1.5,1.5,0,0,0,68.5,21Z" transform="translate(0 0)"/><polygon class="cls-3" points="52.51 44.44 52.51 59.79 55.08 63.98 55.27 64.3 65.4 64.3 65.61 44.44 52.51 44.44"/><polygon class="cls-4" points="52.51 44.44 52.51 59.79 55.08 63.98 55.23 44.44 52.51 44.44"/><polygon class="cls-3" points="28.05 44.03 28.05 59.38 25.48 63.57 25.28 63.89 15.15 63.89 14.94 44.03 28.05 44.03"/><polygon class="cls-4" points="28.05 44.03 28.05 59.38 25.48 63.57 25.32 44.03 28.05 44.03"/><polygon class="cls-3" points="68.68 43.73 68.68 44.65 13.61 44.65 13.61 43.32 18.73 40.66 64.17 40.66 68.68 43.73"/><polygon class="cls-4" points="68.68 43.73 68.68 44.65 13.61 44.65 13.61 43.32 68.68 43.73"/><polygon class="cls-5" points="21.49 48.33 19.04 48.33 18.01 47.62 22.62 47.62 21.49 48.33"/><polygon class="cls-5" points="21.49 51.3 19.04 51.3 18.01 50.58 22.62 50.58 21.49 51.3"/><polygon class="cls-5" points="21.49 55.5 19.04 55.5 18.01 54.78 22.62 54.78 21.49 55.5"/><polygon class="cls-5" points="59.06 48.74 61.51 48.74 62.54 48.02 57.93 48.02 59.06 48.74"/><polygon class="cls-5" points="59.06 51.71 61.51 51.71 62.54 50.99 57.93 50.99 59.06 51.71"/><polygon class="cls-5" points="59.06 55.91 61.51 55.91 62.54 55.19 57.93 55.19 59.06 55.91"/><path class="cls-5" d="M60.73,22.9H40.05a.78.78,0,0,0-.78.78h0V37.61a.78.78,0,0,0,.78.79H47.9l-.29,1.87s-1.68.9-.5.92,6.75,0,6.75,0,1.08,0-.63-.94L53,38.4h7.78a.79.79,0,0,0,.79-.79h0V23.68a.78.78,0,0,0-.79-.78Z" transform="translate(0 0)"/><rect class="cls-6" x="40.02" y="23.73" width="20.75" height="11.61"/><circle class="cls-6" cx="50.39" cy="23.36" r="0.13"/><circle class="cls-6" cx="50.39" cy="37.33" r="0.5"/><polygon class="cls-5" points="49.61 42.61 49.61 42.87 35.48 42.87 35.48 42.66 35.5 42.61 35.85 41.66 49.32 41.66 49.61 42.61"/><path class="cls-5" d="M55.05,42.35c0,.11-.12.23-.34.34a4.31,4.31,0,0,1-2.39-.11s-1.23-.21-1.23-.76l.1-.06a4.34,4.34,0,0,1,3.38,0,.77.77,0,0,1,.37.24A.38.38,0,0,1,55.05,42.35Z" transform="translate(0 0)"/><path class="cls-4" d="M55.05,42.35a2.67,2.67,0,0,1-2.7-.21,1.94,1.94,0,0,0-1.16-.38,4.34,4.34,0,0,1,3.38,0,.77.77,0,0,1,.37.24A.38.38,0,0,1,55.05,42.35Z" transform="translate(0 0)"/><ellipse class="cls-6" cx="53.84" cy="42.03" rx="0.34" ry="0.11"/><polygon class="cls-4" points="49.61 42.61 49.61 42.87 35.48 42.87 35.48 42.66 35.5 42.61 49.61 42.61"/><path class="cls-7" d="M17.52,12.9a.69.69,0,0,0-.42.1,1,1,0,0,0-.27.36,4.6,4.6,0,0,1-1.2,1.36c-.36.26-.81.58-.75,1.06a1.44,1.44,0,0,0,.17.45c.33.67,1.23,1.18,1.14,1.94.33-.55-.11-.82.22-1.37.15-.26.42-.55.66-.39.07.06.13.16.21.2s.4-.1.57-.26A2.4,2.4,0,0,1,20,16.13a1.35,1.35,0,0,1,.94.51c.27.44-.26.92-.39,1.41a.26.26,0,0,0,.19.33h.1c.22,0,.48,0,.5-.14.28,0,.62,0,.74-.31a2.25,2.25,0,0,0,.06-.36,6.94,6.94,0,0,1,.39-1.4,1.93,1.93,0,0,0,0-1.42,1.8,1.8,0,0,0-.3-.37A6.4,6.4,0,0,0,17.52,12.9Z" transform="translate(0 0)"/><path class="cls-8" d="M16.48,19.12s.28,2.39-.77,2.58,1,3.44,1,3.44l4.77.57L20.3,21.89s-.77-.29-.29-2.2S16.48,19.12,16.48,19.12Z" transform="translate(0 0)"/><polygon class="cls-8" points="28.27 50.22 28.56 54.61 30.76 53.66 29.9 50.02 28.27 50.22"/><path class="cls-7" d="M12.13,40.09s.1,5.54.67,7.36.48,1.91.38,2.19-.19.1-.19.58-.19,8,0,8.69-.57,1.81,0,1.91,3.25,0,3.34-.57-.76-.77-.38-1.15,1-8.22,1-8.22l1.33-5.44,2.49-2.87H26l1.63,6.31s-.67,1.81-.19,1.81,3.34.58,3.34-1.52a53.79,53.79,0,0,0-1.15-8.51c-.19-.19.1-.86-.19-1.14a26.86,26.86,0,0,0-4.87-2.68c-1.24-.38-3-.84-3-.84Z" transform="translate(0 0)"/><path class="cls-7" d="M30.76,52.89a1.71,1.71,0,0,0-2.1,1c-.67,1.43-.38,1.81-.38,1.81s2.19.77,2.57.38a2.41,2.41,0,0,1,1.24-.23.76.76,0,0,0,.27-1.46l-.07,0C31.52,54.13,30.76,52.89,30.76,52.89Z" transform="translate(0 0)"/><circle class="cls-8" cx="18.62" cy="17.83" r="2.87"/><path class="cls-2" d="M14.9,22.89s4.68,1,5.83-.57,1.62,4.3,1.62,4.3l.58,6.11-.86,3.35S17.58,39.71,16.14,40s-3.63.48-3.63.48.67-10.6.67-10.79S14.9,22.89,14.9,22.89Z" transform="translate(0 0)"/><path class="cls-7" d="M16.32,21.1s-1-.59-1.32,0a10.2,10.2,0,0,1-3.25,2c-.29,0,.57,7.92.19,8.88s-2.2,7.93-1.15,8.5.29-.57,1.34.86,6.21,1.43,6.5.86-2.3-4.87-1.82-8.88,1.24-9.56.57-10.32A6.83,6.83,0,0,1,16.32,21.1Z" transform="translate(0 0)"/><path class="cls-7" d="M19.77,21.75l.14-.46s4,1.32,4.16,2.18.1,6.88-.57,7.35-1.63,1.25-1,2.39,1.44,2.39,2,2.49,1.62.76,1.34,1.43-3.73-.57-3.73-.57a5.8,5.8,0,0,1-2.2-4.4C20.06,29.49,19.77,21.75,19.77,21.75Z" transform="translate(0 0)"/><path class="cls-8" d="M23.12,33l-2.3,4.3s-3.34,3.44-1.43,3.82,3-3.15,3-3.15l2.49-3.54Z" transform="translate(0 0)"/><path class="cls-7" d="M17.66,13.65a.77.77,0,0,0-.34.07,1,1,0,0,0-.23.26,3.29,3.29,0,0,1-1,1c-.29.18-.66.41-.61.75a1.3,1.3,0,0,0,.14.32A2.49,2.49,0,0,1,16,17.57l.79-1.16c.13-.18.35-.39.54-.28s.11.11.17.15.33-.08.47-.19a2.19,2.19,0,0,1,1.78-.16,1.15,1.15,0,0,1,.76.37c.28.39,0,1,.16,1.41a.41.41,0,0,0,.17-.28c.23,0,.5,0,.6-.22a.7.7,0,0,0,.05-.25,4.08,4.08,0,0,1,.32-1,1.19,1.19,0,0,0,0-1,2,2,0,0,0-.25-.26A5.76,5.76,0,0,0,17.66,13.65Z" transform="translate(0 0)"/><path class="cls-7" d="M23.12,23.09l.89.23s2.07,5.31,1.59,8.94-.76,2.86-.76,2.86a2.3,2.3,0,0,0-2.49-1.34Z" transform="translate(0 0)"/><path class="cls-8" d="M10.51,34.93l4,6.21s2.48,3.15,3.25,1.72S15.09,39,15.09,39l-2.58-4.78Z" transform="translate(0 0)"/><path class="cls-7" d="M12.51,23.28l-.76-.19a3.1,3.1,0,0,0-1.91,2.48c-.38,2-.1,10,.38,10.13s2.36-1.4,2.66-1.09-.65-1.3-.37-2.16S12.51,23.28,12.51,23.28Z" transform="translate(0 0)"/><g id="f3c2397c-d780-4cc6-97d8-1503d8277a2c"><rect id="ad41612f-86f7-46b2-a964-3a5da7bcf3cf" class="cls-2" x="45.96" y="27.54" width="2.47" height="0.59"/><rect id="b9a0b375-cc2a-4c59-8850-661af54e4f62" class="cls-2" x="56.11" y="27.54" width="0.87" height="0.59"/><rect id="e174c2ab-9bc5-41ec-b37c-b06fbf8a9878" class="cls-2" x="57.85" y="27.54" width="0.87" height="0.59"/><rect id="ba2479ac-4c7d-43b4-a028-73b1e20e4002" class="cls-2" x="49.3" y="27.54" width="5.9" height="0.59"/><rect id="ac60ef86-00f2-480b-8171-28b6fdfc1958" class="cls-2" x="42.85" y="31.38" width="2.47" height="0.59"/><rect id="b3d8298d-cd65-487a-8b19-4cee946356e7" class="cls-2" x="53" y="31.38" width="0.87" height="0.59"/><rect id="ed27f15f-f0c4-4569-8330-a6688f8e356c" class="cls-2" x="54.74" y="31.38" width="0.87" height="0.59"/><rect id="f685c005-adaf-4d60-acda-005b037d82a6" class="cls-2" x="46.19" y="31.38" width="5.9" height="0.59"/><rect id="eca7c7fc-83f8-48ca-a588-6606db47af3f" class="cls-2" x="53.04" y="28.87" width="2.47" height="0.59"/><rect id="a71b5b2f-f8b9-481d-a301-5e3357e5fe42" class="cls-2" x="56.38" y="28.87" width="2.47" height="0.59"/><rect id="abb3a25a-f854-41fc-8391-e6ad9fbe2417" class="cls-2" x="42.85" y="28.87" width="0.87" height="0.59"/><rect id="add2b425-b775-4eb5-9c25-8c4c14f957c9" class="cls-2" x="44.59" y="28.87" width="0.87" height="0.59"/><rect id="b7159612-3b84-4b0b-a885-612eaab04c06" class="cls-2" x="46.32" y="28.87" width="5.9" height="0.59"/><rect id="edfc7301-4de5-47dc-80e2-1ae2da982d6d" class="cls-2" x="47.92" y="30.15" width="2.47" height="0.59"/><rect id="e1009f91-6275-4375-80fa-0d778e331fdc" class="cls-2" x="44.59" y="30.15" width="2.47" height="0.59"/><rect id="a060fb9f-1f1a-4862-9a69-16dd49199e18" class="cls-2" x="42.85" y="30.15" width="0.87" height="0.59"/><rect id="b6754d5f-104f-449c-b9a9-cf9ac82bf5fe" class="cls-2" x="57.98" y="30.15" width="0.87" height="0.59"/><rect id="e6ed1ccd-2cfd-450f-a339-07df3a1ee6bb" class="cls-2" x="51.22" y="30.15" width="5.9" height="0.59"/></g></svg>