<svg id="Layer_1" data-name="Layer 1" xmlns="http://www.w3.org/2000/svg" viewBox="0 0 261 264.19"><defs><style>.cls-1{fill:#413960;}</style></defs><title>big-data</title><path class="cls-1" d="M144,108c46.38,0,84-14.52,84-24V48c0-23.4-43.26-36-84-36S60,24.6,60,48V84C60,93.48,97.62,108,144,108Zm0-84c44.58,0,72,14,72,24s-27.42,24-72,24S72,58,72,48,99.42,24,144,24ZM60,120V101.46c18.6,12,55.26,18.54,84,18.54s65.4-6.36,84-18.54V120c0,9.48-37.62,24-84,24S60,129.48,60,120ZM276,240a24,24,0,0,1-23.81,24.19A24.28,24.28,0,0,1,249,264a36,36,0,0,1-50.81,3.19A36.93,36.93,0,0,1,195,264a23.58,23.58,0,0,1-26.16-18h-7.92a18,18,0,0,1-33.84,0h-7.92A23.52,23.52,0,0,1,93,264a36,36,0,0,1-50.81,3.19A36.93,36.93,0,0,1,39,264a24,24,0,0,1,0-48,36,36,0,0,1,50.81-3.19A36.93,36.93,0,0,1,93,216a23.64,23.64,0,0,1,26.16,18h7.92A18,18,0,0,1,138,223.08V186c-38.88-1.14-78-13.62-78-36V137.46c18.6,12,55.26,18.54,84,18.54s65.4-6.36,84-18.54V150c0,22.26-39.12,34.74-78,36v37.2A18,18,0,0,1,160.92,234h7.92A23.64,23.64,0,0,1,195,216a36,36,0,0,1,50.81-3.19A36.93,36.93,0,0,1,249,216a24,24,0,0,1,26.81,20.81A22.67,22.67,0,0,1,276,240Z" transform="translate(-15 -12)"/></svg>