<svg id="Layer_1" data-name="Layer 1" xmlns="http://www.w3.org/2000/svg" viewBox="0 0 76.01 76"><defs><style>.cls-1{fill:#85d1a0;}.cls-2{fill:#6255a5;}.cls-3{fill:#252d36;}.cls-4{fill:#d0bfff;}</style></defs><title>books-icon</title><path class="cls-1" d="M66,1a1,1,0,0,0,0,2,1,1,0,0,0,1-1,1,1,0,0,0-.3-.7A1,1,0,0,0,66,1Z" transform="translate(0.01 0)"/><path class="cls-1" d="M38,0A38,38,0,1,0,64.87,11.13,38,38,0,0,0,38,0Z" transform="translate(0.01 0)"/><path class="cls-1" d="M72,0a4,4,0,1,0,2.83,1.17A4,4,0,0,0,72,0Z" transform="translate(0.01 0)"/><path class="cls-1" d="M2,12a2,2,0,1,0,2,2,2,2,0,0,0-.58-1.42A2,2,0,0,0,2,12Z" transform="translate(0.01 0)"/><path class="cls-2" d="M66,63a2,2,0,1,0,2,2,2,2,0,0,0-.58-1.42A2,2,0,0,0,66,63ZM5,62a4,4,0,1,0,2.83,1.17A4,4,0,0,0,5,62Z" transform="translate(0.01 0)"/><path class="cls-1" d="M12,69a2,2,0,1,0,2,2,2,2,0,0,0-.58-1.42A2,2,0,0,0,12,69Z" transform="translate(0.01 0)"/><path class="cls-2" d="M54.48,64a2.65,2.65,0,0,0-1,.19,2.57,2.57,0,0,0-.8.54,2.45,2.45,0,0,0-.54.81,2.31,2.31,0,0,0-.19,1A2.48,2.48,0,0,0,54.45,69h0a2.31,2.31,0,0,0,1-.19,2.45,2.45,0,0,0,.81-.54,2.57,2.57,0,0,0,.54-.8,2.73,2.73,0,0,0,0-2,2.48,2.48,0,0,0-1.35-1.35A2.42,2.42,0,0,0,54.48,64ZM4,35a1,1,0,0,0,0,2,1,1,0,0,0,1-1,1,1,0,0,0-.3-.7A1,1,0,0,0,4,35Z" transform="translate(0.01 0)"/><path class="cls-1" d="M74,18a1,1,0,0,0,0,2,1,1,0,0,0,1-1,1,1,0,0,0-.3-.7A1,1,0,0,0,74,18Z" transform="translate(0.01 0)"/><path class="cls-2" d="M68,52a2,2,0,1,0,2,2,2,2,0,0,0-.58-1.42A2,2,0,0,0,68,52Z" transform="translate(0.01 0)"/><path class="cls-2" d="M16.7,17.3a3.66,3.66,0,0,1,3.67-3.6H46.08a1.22,1.22,0,0,1,1.22,1.22h0V42.8l-26.15-.08L16.7,45.29v-28Z" transform="translate(0.01 0)"/><path class="cls-3" d="M46.08,14.4a.52.52,0,0,1,.52.52h0V42.1L21.34,42H21l-.33.19L17.4,44.07V17.3a3,3,0,0,1,3-2.9h25.7Zm0-1.4H20.37A4.33,4.33,0,0,0,16,17.29h0V46.5l5.33-3.08L48,43.5V14.92A1.92,1.92,0,0,0,46.08,13Z" transform="translate(0.01 0)"/><path class="cls-4" d="M17.44,45.25h3.44V14.38h-.5a2.93,2.93,0,0,0-2.94,2.92h0Z" transform="translate(0.01 0)"/><path class="cls-4" d="M20,49.3a3.3,3.3,0,0,1,0-6.6H46.77a7,7,0,0,0,0,6.6Z" transform="translate(0.01 0)"/><path class="cls-3" d="M45.72,43.4a7.74,7.74,0,0,0,0,5.2H20a2.6,2.6,0,0,1,0-5.2ZM48,42H20a4,4,0,0,0,0,8H48A6.66,6.66,0,0,1,48,42Z" transform="translate(0.01 0)"/><path class="cls-3" d="M20.5,21a.5.5,0,0,1-.5-.5v-3a.5.5,0,0,1,1,0v3A.5.5,0,0,1,20.5,21Z" transform="translate(0.01 0)"/><path class="cls-3" d="M20.5,41a.5.5,0,0,1-.5-.5v-18a.5.5,0,0,1,1,0v18A.5.5,0,0,1,20.5,41Z" transform="translate(0.01 0)"/><path class="cls-2" d="M30.7,27.3a3.63,3.63,0,0,1,3.67-3.6H60.21a1.09,1.09,0,0,1,1.09,1.09V51.71a1.08,1.08,0,0,1-1.08,1.08h0l-25.06-.07L30.7,55.29Z" transform="translate(0.01 0)"/><path class="cls-3" d="M60.21,24.4a.38.38,0,0,1,.39.39V51.71a.38.38,0,0,1-.39.39L35.34,52H35l-.33.19L31.4,54.07V27.3a3,3,0,0,1,3-2.9H60.21Zm0-1.4H34.37A4.33,4.33,0,0,0,30,27.29h0V56.5l5.33-3.08,24.88.08h0A1.79,1.79,0,0,0,62,51.71h0V24.79A1.79,1.79,0,0,0,60.21,23Z" transform="translate(0.01 0)"/><path class="cls-4" d="M31.44,55.25h3.44V24.38h-.5a2.93,2.93,0,0,0-2.94,2.92h0Z" transform="translate(0.01 0)"/><path class="cls-4" d="M34,59.3a3.3,3.3,0,0,1,0-6.6H60.77a7,7,0,0,0-.23,6,.42.42,0,0,1,0,.38.44.44,0,0,1-.36.19Z" transform="translate(0.01 0)"/><path class="cls-3" d="M59.71,53.4a7.5,7.5,0,0,0,0,5.2H34a2.6,2.6,0,0,1,0-5.2ZM62,52H34a4,4,0,0,0,0,8H60.14a1.11,1.11,0,0,0,1.09-1.13,1.43,1.43,0,0,0-.09-.41A6.46,6.46,0,0,1,62,52Z" transform="translate(0.01 0)"/><path class="cls-3" d="M34.5,31a.5.5,0,0,1-.5-.5v-3a.5.5,0,0,1,1,0v3A.5.5,0,0,1,34.5,31Z" transform="translate(0.01 0)"/><path class="cls-3" d="M34.5,51a.5.5,0,0,1-.5-.5v-14a.5.5,0,0,1,1,0v14A.5.5,0,0,1,34.5,51Z" transform="translate(0.01 0)"/><path class="cls-3" d="M34.5,34.72a.5.5,0,0,1-.5-.5V32.5a.5.5,0,0,1,1,0v1.72A.5.5,0,0,1,34.5,34.72Z" transform="translate(0.01 0)"/><path class="cls-3" d="M52.5,38.75h-12a.25.25,0,0,1-.25-.25v-7a.25.25,0,0,1,.25-.25h.84a.25.25,0,0,1,0,.5h-.59v6.5H52.5a.25.25,0,0,1,0,.5Z" transform="translate(0.01 0)"/><path class="cls-3" d="M55.5,38.75H54.09a.25.25,0,0,1,0-.5h1.16v-6.5H45.63a.25.25,0,1,1,0-.5H55.5a.25.25,0,0,1,.25.25v7A.25.25,0,0,1,55.5,38.75Z" transform="translate(0.01 0)"/><path class="cls-3" d="M44.5,31.75h-2a.25.25,0,0,1,0-.5h2a.25.25,0,0,1,0,.5Z" transform="translate(0.01 0)"/></svg>