<svg id="Layer_1" data-name="Layer 1" xmlns="http://www.w3.org/2000/svg" viewBox="0 0 78 78"><defs><style>.cls-1{fill:#85d1a0;}.cls-2{fill:#6255a5;}.cls-3{fill:#d0bfff;}.cls-4{fill:#252d36;}.cls-5{fill:#fefdef;}.cls-6{fill:#ceccbe;}</style></defs><title>credit-card-icon</title><path class="cls-1" d="M77,12a1,1,0,1,0,.71.29A1,1,0,0,0,77,12Z" transform="translate(-11 -11)"/><path class="cls-1" d="M50,13A37,37,0,1,0,76.16,23.84,37,37,0,0,0,50,13Z" transform="translate(-11 -11)"/><path class="cls-1" d="M83,11a4,4,0,1,0,2.83,1.17A4,4,0,0,0,83,11Z" transform="translate(-11 -11)"/><path class="cls-1" d="M87,22a2,2,0,1,0,1.41.59A2,2,0,0,0,87,22Z" transform="translate(-11 -11)"/><path class="cls-2" d="M81,74a2,2,0,1,0,1.41.59A2,2,0,0,0,81,74ZM15,59a4,4,0,1,0,2.83,1.17A4,4,0,0,0,15,59Z" transform="translate(-11 -11)"/><path class="cls-1" d="M25,85a2,2,0,1,0,1.41.59A2,2,0,0,0,25,85Z" transform="translate(-11 -11)"/><path class="cls-2" d="M18.5,49a2.49,2.49,0,1,0,1.77.73A2.51,2.51,0,0,0,18.5,49Zm61-17a1.5,1.5,0,1,0,1.06.44A1.5,1.5,0,0,0,79.5,32Z" transform="translate(-11 -11)"/><path class="cls-3" d="M29.85,66.3a5.16,5.16,0,0,1-5.15-5.15V37.85a5.16,5.16,0,0,1,5.15-5.15h41.3a5.16,5.16,0,0,1,5.15,5.15v23.3a5.16,5.16,0,0,1-5.15,5.15Z" transform="translate(-11 -11)"/><path class="cls-4" d="M71.15,33.4a4.45,4.45,0,0,1,4.45,4.45v23.3a4.45,4.45,0,0,1-4.45,4.45H29.85a4.46,4.46,0,0,1-4.45-4.45V37.85a4.46,4.46,0,0,1,4.45-4.45Zm0-1.4H29.85A5.85,5.85,0,0,0,24,37.85v23.3A5.85,5.85,0,0,0,29.85,67h41.3A5.85,5.85,0,0,0,77,61.15V37.85A5.85,5.85,0,0,0,71.15,32Z" transform="translate(-11 -11)"/><path class="cls-2" d="M25.33,38.63H75.58v6H25.33Z" transform="translate(-11 -11)"/><path class="cls-5" d="M29.5,47.5h25v4h-25Z" transform="translate(-11 -11)"/><path class="cls-4" d="M54.5,52h-25a.5.5,0,0,1-.5-.5v-4a.5.5,0,0,1,.5-.5h25a.5.5,0,0,1,.5.5v4A.5.5,0,0,1,54.5,52ZM30,51H54V48H30Z" transform="translate(-11 -11)"/><path class="cls-5" d="M58.5,47.5h8v4h-8Z" transform="translate(-11 -11)"/><path class="cls-4" d="M66.5,52h-8a.5.5,0,0,1-.5-.5v-4a.5.5,0,0,1,.5-.5h8a.5.5,0,0,1,.5.5v4A.5.5,0,0,1,66.5,52ZM59,51h7V48H59Z" transform="translate(-11 -11)"/><path class="cls-6" d="M36.33,61.5H31.67a2.17,2.17,0,0,1-2.17-2.17V56.67a2.17,2.17,0,0,1,2.17-2.17h4.66a2.17,2.17,0,0,1,2.17,2.17v2.66A2.17,2.17,0,0,1,36.33,61.5Z" transform="translate(-11 -11)"/><path class="cls-4" d="M36.33,62H31.67A2.68,2.68,0,0,1,29,59.33V56.67A2.68,2.68,0,0,1,31.67,54h4.66A2.68,2.68,0,0,1,39,56.67v2.66A2.68,2.68,0,0,1,36.33,62Zm-4.66-7A1.67,1.67,0,0,0,30,56.67v2.66A1.67,1.67,0,0,0,31.67,61h4.66A1.67,1.67,0,0,0,38,59.33V56.67A1.67,1.67,0,0,0,36.33,55Z" transform="translate(-11 -11)"/><path class="cls-4" d="M58.5,56h-14a.5.5,0,0,1,0-1h14a.5.5,0,0,1,0,1Z" transform="translate(-11 -11)"/><path class="cls-4" d="M65.5,59h-21a.5.5,0,0,1,0-1h21a.5.5,0,0,1,0,1Z" transform="translate(-11 -11)"/><path class="cls-4" d="M53.5,62h-9a.5.5,0,0,1,0-1h9a.5.5,0,0,1,0,1Z" transform="translate(-11 -11)"/><path class="cls-4" d="M62.5,62h-6a.5.5,0,0,1,0-1h6a.5.5,0,0,1,0,1Z" transform="translate(-11 -11)"/><path class="cls-4" d="M69.5,56h-8a.5.5,0,0,1,0-1h8a.5.5,0,0,1,0,1Z" transform="translate(-11 -11)"/><path class="cls-4" d="M34.5,39h-9a.5.5,0,0,1,0-1h9a.5.5,0,0,1,0,1Z" transform="translate(-11 -11)"/><path class="cls-4" d="M43.5,45h-18a.5.5,0,0,1,0-1h18a.5.5,0,0,1,0,1Z" transform="translate(-11 -11)"/><path class="cls-4" d="M75.5,45h-29a.5.5,0,0,1,0-1h29a.5.5,0,0,1,0,1Z" transform="translate(-11 -11)"/><path class="cls-4" d="M43.5,39h-5a.5.5,0,0,1,0-1h5a.5.5,0,0,1,0,1Z" transform="translate(-11 -11)"/><path class="cls-4" d="M75.5,39h-28a.5.5,0,0,1,0-1h28a.5.5,0,0,1,0,1Z" transform="translate(-11 -11)"/></svg>