<svg id="Layer_1" data-name="Layer 1" xmlns="http://www.w3.org/2000/svg" viewBox="0 0 271.06 245.65"><defs><style>.cls-1{fill:#413960;}</style></defs><title>data-structure</title><path class="cls-1" d="M271.06,199.06H254.12V148.24c0-5.09-3.39-8.48-8.47-8.48H152.47V105.88h33.88c5.09,0,8.47-3.39,8.47-8.47V29.65c0-5.09-3.38-8.47-8.47-8.47h-84.7c-5.09,0-8.47,3.38-8.47,8.47V97.41c0,5.08,3.38,8.47,8.47,8.47h33.88v33.88H42.35c-5.08,0-8.47,3.39-8.47,8.48v50.82H16.94c-5.08,0-8.47,3.39-8.47,8.47v50.82c0,5.09,3.39,8.47,8.47,8.47H67.76c5.09,0,8.48-3.38,8.48-8.47V207.53c0-5.08-3.39-8.47-8.48-8.47H50.82V156.71h84.71v42.35H118.59c-5.08,0-8.47,3.39-8.47,8.47v50.82c0,5.09,3.39,8.47,8.47,8.47h50.82c5.08,0,8.47-3.38,8.47-8.47V207.53c0-5.08-3.39-8.47-8.47-8.47H152.47V156.71h84.71v42.35H220.24c-5.09,0-8.48,3.39-8.48,8.47v50.82c0,5.09,3.39,8.47,8.48,8.47h50.82c5.08,0,8.47-3.38,8.47-8.47V207.53C279.53,202.45,276.14,199.06,271.06,199.06ZM110.12,38.12h67.76V88.94H110.12ZM59.29,249.88H25.41V216H59.29Zm101.65,0H127.06V216h33.88Zm101.65,0H228.71V216h33.88Z" transform="translate(-8.47 -21.18)"/></svg>