<svg id="Layer_1" data-name="Layer 1" xmlns="http://www.w3.org/2000/svg" viewBox="0 0 258.23 231.62"><defs><style>.cls-1{fill:#413960;}</style></defs><title>digital-marketing</title><path class="cls-1" d="M152.87,119.49a2.88,2.88,0,0,0,2.88,2,3.32,3.32,0,0,0,.89,0,2.87,2.87,0,0,0,1.8-3.66.49.49,0,0,0,0-.11l-6.74-20.83a2.88,2.88,0,1,0-5.59,1.39,2.29,2.29,0,0,0,.12.37Zm14.66-4.75a2.89,2.89,0,0,0,2.74,2,3.39,3.39,0,0,0,.89-.15A2.88,2.88,0,0,0,173,113l-6.74-20.79a2.87,2.87,0,0,0-5.47,1.76Zm-121.8,48.5a8.64,8.64,0,1,0-8.64,8.64A8.64,8.64,0,0,0,45.73,163.24Zm-11.52,0a2,2,0,1,1-.05.06v-.06Zm25.38,8.67A8.64,8.64,0,1,0,51,163.27,8.64,8.64,0,0,0,59.59,171.91Zm0-11.52a2,2,0,1,1-.06-.06h.06Zm22.49,11.52a8.64,8.64,0,1,0-8.64-8.64A8.64,8.64,0,0,0,82.08,171.91Zm0-11.52a2,2,0,1,1-.06-.06h.06Z" transform="translate(-14.92 -28.21)"/><path class="cls-1" d="M263.06,91.21A18.23,18.23,0,0,0,252,56.91l-8.64-26.76A2.69,2.69,0,0,0,239,28.8L173.12,74.1l-25.58,8.27a21.38,21.38,0,0,0-2.88,1.21H32.54a2.88,2.88,0,0,0-2.88,2.88v49.85H17.8a2.88,2.88,0,0,0-2.88,2.88v49.62a2.88,2.88,0,0,0,2.88,2.88H29.66V228.5H26.38a11.94,11.94,0,0,0-9.82,4.55,7.81,7.81,0,0,0-1.15,7.17l2.42,7.29c2.33,7.25,11,12.32,20.47,12.32H231.44c9.64,0,18.05-5.07,20.47-12.32l2.42-7.29a7.74,7.74,0,0,0-1.15-7.17,11.94,11.94,0,0,0-9.82-4.55h-3.28V122.43l29-.61a2.87,2.87,0,0,0,2.68-3.77Zm3.63-20.16a12.51,12.51,0,0,1-5.39,14.57l-7.54-23a12.48,12.48,0,0,1,12.93,8.53ZM138.24,101.17A16.2,16.2,0,0,1,146.53,89a14.62,14.62,0,0,1,2.65-1.12l23.27-7.55,12.13,37.44.34,1-23.29,7.52a16,16,0,0,1-20.16-10.23l-2.6-8.12a15.4,15.4,0,0,1-.63-4.58A20.55,20.55,0,0,1,138.24,101.17Zm49,23,13.54,26.27-9.1,2.88-13.51-26.27Zm-47.95-.37.34.43a25,25,0,0,0,1.79,2l.32.34a19,19,0,0,0,2.24,1.87l.55.38a19.32,19.32,0,0,0,2.51,1.53h.23a23,23,0,0,0,2.56,1.06l.63.2a24.11,24.11,0,0,0,2.88.69h.61c.89,0,1.78.18,2.7.21H157a25.36,25.36,0,0,0,2.88-.21h.69a20.56,20.56,0,0,0,2.88-.72l9-2.88,15.09,29.29a2.9,2.9,0,0,0,2.57,1.56,3.1,3.1,0,0,0,.86,0l14.66-4.75a3,3,0,0,0,1.79-4.06l-14.06-27.36,23.93-.49V228.5H52.47V191.69H64.34l18.55,17.74a3.52,3.52,0,0,0,.83.55H84a2.66,2.66,0,0,0,.69,0h.17a3.53,3.53,0,0,0,1.07-.23,2.9,2.9,0,0,0,1.7-2.88l-.49-15.55H98.9a2.88,2.88,0,0,0,2.88-2.88V139.19a2.88,2.88,0,0,0-2.88-2.88H52.47v-30h80.24a20.59,20.59,0,0,0,.78,3.28l2.59,8.12a22.92,22.92,0,0,0,1.24,2.88l.29.61A24.45,24.45,0,0,0,139.25,123.84Zm52.44,110.45v7H78.08v-7ZM35.42,89.28h102a.43.43,0,0,0-.15.2,3.9,3.9,0,0,0-.31.4c-.47.61-.87,1.21-1.27,1.85l-.29.43a21.45,21.45,0,0,0-1.15,2.3,4.65,4.65,0,0,1-.2.52,22.82,22.82,0,0,0-.75,2.25v.32a24.69,24.69,0,0,0-.52,2.56,2.67,2.67,0,0,1,0,.4H49.59a2.88,2.88,0,0,0-2.88,2.88v32.92H35.42ZM20.68,185.93V142.07H96.13v43.86H84.3a2.88,2.88,0,0,0-2.88,2.88l.37,11.52-14.4-13.68a2.87,2.87,0,0,0-2-.77H20.68Zm25.92,5.76V228.5H35.42V191.69Zm196.76,42.57a6.49,6.49,0,0,1,5.16,2.16,2.18,2.18,0,0,1,.37,2l-2.45,7.25c-1.61,4.9-7.92,8.41-15,8.41H38.3c-7.08,0-13.39-3.51-15-8.41l-2.42-7.25a2.1,2.1,0,0,1,.35-2,6.46,6.46,0,0,1,5.15-2.16H72.46v9.88A2.88,2.88,0,0,0,75.34,247H194.57a2.88,2.88,0,0,0,2.88-2.88v-9.85h45.91ZM223,228.5V122.8l11.29-.23V228.5Zm-28.8-110.85h-3.57l-2.88-9.28-10-30.61L239,35.6l8.29,25.6h0l1.7,5.27L265,116.15Z" transform="translate(-14.92 -28.21)"/><path class="cls-1" d="M107.6,166a2.89,2.89,0,0,0-1.62,4.9l19.36,18.86-4.55,26.64a2.87,2.87,0,0,0,4.17,2.88l23.91-12.55,23.93,12.7a2.91,2.91,0,0,0,1.35.34,3.11,3.11,0,0,0,1.7-.54,2.91,2.91,0,0,0,1.13-2.88l-4.55-26.64,19.35-18.87a2.88,2.88,0,0,0,0-4.07,2.83,2.83,0,0,0-1.63-.82l-26.73-3.89-11.95-24.22a2.88,2.88,0,0,0-5.19,0l-12,24.22Zm31.22,0,10.05-20.36,10,20.36a2.89,2.89,0,0,0,2.16,1.56l22.46,3.28-16.27,15.84a2.88,2.88,0,0,0-.81,2.54l3.83,22.37L150.13,201a2.88,2.88,0,0,0-1.32-.31,3.14,3.14,0,0,0-1.35.31L127.3,211.59l3.83-22.37a2.9,2.9,0,0,0-.84-2.54l-16.24-15.84,22.46-3.28a2.88,2.88,0,0,0,2.31-1.53Z" transform="translate(-14.92 -28.21)"/></svg>