<svg id="Layer_1" data-name="Layer 1" xmlns="http://www.w3.org/2000/svg" viewBox="0 0 246.87 246.87"><defs><style>.cls-1{fill:#fff;}</style></defs><title>facebook</title><path class="cls-1" d="M200.57,0a44.6,44.6,0,0,1,32.71,13.58,44.6,44.6,0,0,1,13.58,32.71V200.57a46.36,46.36,0,0,1-46.29,46.29H170.36V151.23h32L207.18,114h-36.8V90.16q0-9,3.78-13.5t14.7-4.5L208.43,72V38.73q-10.12-1.44-28.61-1.44-21.85,0-34.95,12.85T131.79,86.43v27.48H99.64v37.32h32.15v95.63H46.29a44.6,44.6,0,0,1-32.71-13.58A44.6,44.6,0,0,1,0,200.57V46.29A44.6,44.6,0,0,1,13.58,13.58,44.6,44.6,0,0,1,46.29,0Z" transform="translate(0 0)"/></svg>