<svg id="Layer_1" data-name="Layer 1" xmlns="http://www.w3.org/2000/svg" viewBox="0 0 78 78"><defs><style>.cls-1{fill:#85d1a0;}.cls-2{fill:#6454a1;}.cls-3{fill:#ce9065;}.cls-4{fill:#d0bfff;}.cls-5{fill:#fdfcef;}.cls-6{fill:#db9e71;}.cls-7{fill:#512c2b;}.cls-8{fill:#252d36;}.cls-9{fill:#895d3d;}.cls-10{fill:#5e2e2e;}</style></defs><title>student-iocn</title><path class="cls-1" d="M77,12a1,1,0,1,0,.71.29A1,1,0,0,0,77,12Z" transform="translate(-11 -11)"/><path class="cls-1" d="M50,13A37,37,0,1,0,76.16,23.84,37,37,0,0,0,50,13Z" transform="translate(-11 -11)"/><path class="cls-1" d="M83,11a4,4,0,1,0,2.83,1.17A4,4,0,0,0,83,11Z" transform="translate(-11 -11)"/><path class="cls-1" d="M87,22a2,2,0,1,0,1.41.59A2,2,0,0,0,87,22Z" transform="translate(-11 -11)"/><path class="cls-2" d="M81,74a2,2,0,1,0,1.41.59A2,2,0,0,0,81,74ZM15,59a4,4,0,1,0,2.83,1.17A4,4,0,0,0,15,59Z" transform="translate(-11 -11)"/><path class="cls-1" d="M25,85a2,2,0,1,0,1.41.59A2,2,0,0,0,25,85Z" transform="translate(-11 -11)"/><path class="cls-2" d="M18.5,49a2.49,2.49,0,1,0,1.77.73A2.51,2.51,0,0,0,18.5,49Zm61-17a1.5,1.5,0,1,0,1.06.44A1.5,1.5,0,0,0,79.5,32Z" transform="translate(-11 -11)"/><path class="cls-3" d="M68.12,70.53c-.4-2.15-1.28-3.41-3.34-4l-.35-.12-.58-.24c-1.25-.53-8.67-3.27-8.67-3.27a1.85,1.85,0,0,1-1.24-1.08,8.75,8.75,0,0,1-.24-2.91,46.9,46.9,0,0,1-5,1.42c-1.9.19-6-2.27-6-2.27s-.1,3-.23,3.71a1.67,1.67,0,0,1-1.28,1.13l-7.12,2.59a7.86,7.86,0,0,0-2.21.91,7.58,7.58,0,0,0-3.17,4.16s-.47,3.31-.45,3.43c0,.47-.09,1-.13,1.51,7.76,5.26,14,6.73,24.7,6.27,4.86-.22,12.09-2.62,15.89-4.53C68.48,73,68.12,70.53,68.12,70.53Z" transform="translate(-11 -11)"/><path class="cls-4" d="M68.22,70.64c-.41-2.14-1.28-3.4-3.34-4l-.35-.12-.59-.24c-.67-.29-7.32-2.61-9.46-3.41-2.92,2.06-4.23,2.85-6.17,2.85s-3.27-1.25-6.16-3l-3.24,1.2,0,0-.32.09-4.43,1.6a8,8,0,0,0-2.21.92,7.53,7.53,0,0,0-3.16,4.15s-.47,3.32-.45,3.44c0,.46-.09,5.44-.14,6,7.77,5.26,14,6.73,24.7,6.26,4.86-.21,12.1-2.61,15.89-4.52C68.57,77.57,68.22,70.64,68.22,70.64Z" transform="translate(-11 -11)"/><path class="cls-5" d="M55.2,73.27c-.73-.92-1.24-2-2-2.9a.52.52,0,0,1,0-.71,4.14,4.14,0,0,1,1.57-1c.64-.26,1.25-.54,1.88-.78a13.14,13.14,0,0,0-2.19-4.57.4.4,0,0,1,0-.5c-2.91,2-4.22,2.84-6.17,2.84s-3.17-1.15-5.8-2.78c-.24,1.52-1.62,3.58-.6,5.07.41.59,1.23.8,1.5,1.52.39,1-.18,2.52-.21,3.57a12.94,12.94,0,0,0,1.32,5.64.4.4,0,0,1,0,.23,39.26,39.26,0,0,1,1.83,3.89,32.84,32.84,0,0,1,1,3.53c.51,0,1,0,1.57,0,.48-2.29,1.79-4.51,2.7-6.65A23.46,23.46,0,0,1,55.2,73.27Z" transform="translate(-11 -11)"/><path class="cls-2" d="M35.5,83.88a.37.37,0,0,1-.37-.38v-3a.36.36,0,0,1,.37-.37.37.37,0,0,1,.38.37v3A.38.38,0,0,1,35.5,83.88Zm26,1a.37.37,0,0,1-.37-.38v-4a.36.36,0,0,1,.37-.37.37.37,0,0,1,.38.37v4A.38.38,0,0,1,61.5,84.88ZM53.83,61.93s2.37,1,4.09,6.53L53.83,70l2.64,3L48.69,86.54A223.93,223.93,0,0,0,53.83,61.93Zm-11.28,0s-2.37,1-4.09,6.53L42.55,70l-2.64,3,7.65,13.56A238.92,238.92,0,0,1,42.55,61.93Z" transform="translate(-11 -11)"/><path class="cls-6" d="M60.42,44h-.36c-1-.05-1.24.34-1.2-.26.08-1.06-.07-5.36-.07-5.58,0-4.45-4.65-8.09-10.79-8.29h0c.29,0,.25,0,.21,0s-.08,0,.79,0h0c-6.72.2-11.37,3.84-11.37,8.29,0,.22-.15,4.52-.07,5.58,0,.6-.24.21-1.2.26H36a2.22,2.22,0,0,0-2.1,1.58c.13.08.61,3.73,1.39,5.17.44.8,1.12.91,1.82,1.43a1.6,1.6,0,0,1,.57,1,8.93,8.93,0,0,0,2.67,4.1c.59.57,4.5,4.74,7.86,4.53s7.27-4,7.86-4.53a8.93,8.93,0,0,0,2.67-4.1,1.56,1.56,0,0,1,.57-1c.7-.52,1.38-.63,1.81-1.43.78-1.44,1.26-5.09,1.39-5.17A2.21,2.21,0,0,0,60.42,44Z" transform="translate(-11 -11)"/><path class="cls-7" d="M48.27,51.06a2.36,2.36,0,0,0,1.77-.8.12.12,0,0,0,0-.17.14.14,0,0,0-.17,0,2.32,2.32,0,0,1-3.18,0,.15.15,0,0,0-.09,0,.11.11,0,0,0-.08,0,.12.12,0,0,0,0,.17A2.34,2.34,0,0,0,48.27,51.06Zm-2.18-9.23.43-.83a11.25,11.25,0,0,0-5.68.18l.55.81A8.91,8.91,0,0,1,46.09,41.83Zm9.17,0,.43-.83a11.25,11.25,0,0,0-5.68.18l.55.81A8.91,8.91,0,0,1,55.26,41.83ZM43.45,43a1.22,1.22,0,0,0-1.05.73.57.57,0,0,1,.18,0,.73.73,0,0,1,0,1.46.58.58,0,0,1-.32-.1,1.33,1.33,0,0,0,1.2,1.14,1.65,1.65,0,0,0,0-3.2ZM53,43a1.14,1.14,0,0,0-.94.55.59.59,0,0,1,.23-.05.73.73,0,0,1,0,1.45.64.64,0,0,1-.54-.31A1.29,1.29,0,1,0,53,43Zm.53,9.91a.12.12,0,0,0-.15-.19,8.47,8.47,0,0,1-5.14,1.41,8.47,8.47,0,0,1-5.14-1.41.11.11,0,0,0-.08,0,.12.12,0,0,0-.09,0,.12.12,0,0,0,0,.17,9.26,9.26,0,0,0,10.58,0Z" transform="translate(-11 -11)"/><path class="cls-8" d="M49.32,87c-8.9,0-14.65-1.78-21.52-6.43a.47.47,0,0,1-.21-.45c0-.11,0-.48,0-1,0-2.18.1-6.72.58-8.5a6.46,6.46,0,0,1,3.38-4.45,8.38,8.38,0,0,1,2.35-1L41,62.58a1.28,1.28,0,0,0,1-.76,20.17,20.17,0,0,0,.15-2A22,22,0,0,1,40,58.16a9.33,9.33,0,0,1-2.81-4.38c-.11-.45-.16-.6-.38-.77s-.42-.27-.61-.38a3,3,0,0,1-1.35-1.23,16.28,16.28,0,0,1-1.45-5.47.34.34,0,0,1,0-.1,2.71,2.71,0,0,1,2.55-2h.4a3.49,3.49,0,0,1,.68,0c0-1.21,0-3.76.07-4.91,0-.29,0-.48,0-.52,0-4.53,4.25-8.16,10.08-8.8a.51.51,0,0,1,.3-.1h.67a.89.89,0,0,1,.63.08c6.06.62,10.49,4.26,10.49,8.81,0,0,0,.23,0,.52,0,1.17.1,3.81.06,4.91a3.08,3.08,0,0,1,.71,0h.37a2.69,2.69,0,0,1,2.55,2,.34.34,0,0,1,0,.1,16,16,0,0,1-1.45,5.47,2.93,2.93,0,0,1-1.34,1.23,5.07,5.07,0,0,0-.61.38c-.23.17-.28.33-.38.75a9.28,9.28,0,0,1-2.81,4.4,26.43,26.43,0,0,1-2.25,1.77,5.28,5.28,0,0,0,.22,1.83,1.41,1.41,0,0,0,.91.81c.35.12,7.5,2.76,8.74,3.29.23.08.43.17.59.24a2.63,2.63,0,0,0,.3.1c2.12.64,3.22,2,3.68,4.41a.17.17,0,0,1,0,.07s.35,6.93.56,11.15a.51.51,0,0,1-.28.47c-4,2-11.34,4.37-16.09,4.58C51.59,86.93,50.43,87,49.32,87Zm-20.73-7.1c7.42,5,13.55,6.49,24.17,6,4.51-.2,11.4-2.37,15.4-4.33-.19-4.06-.51-10.27-.54-10.79-.39-2.06-1.23-3.08-3-3.6L64.25,67l-.58-.24c-1.24-.52-8.59-3.23-8.67-3.26a2.38,2.38,0,0,1-1.52-1.34,6.27,6.27,0,0,1-.3-2.52.49.49,0,0,1,.21-.4,29.06,29.06,0,0,0,2.33-1.81,8.38,8.38,0,0,0,2.53-3.9A2,2,0,0,1,59,52.21a5.67,5.67,0,0,1,.72-.45,2,2,0,0,0,1-.84A14.78,14.78,0,0,0,62,46a1.74,1.74,0,0,0-1.63-1.15h-.32a2.91,2.91,0,0,0-.73.05.86.86,0,0,1-.76-.14.85.85,0,0,1-.21-.71c.06-.84,0-3.9,0-5.06,0-.3,0-.5,0-.55,0-4.18-4.38-7.5-10.28-7.86-5.67.37-9.88,3.69-9.88,7.86,0,0,0,.25,0,.55,0,1.16-.12,4.22-.06,5.06a.81.81,0,0,1-.2.71.87.87,0,0,1-.77.14,3.23,3.23,0,0,0-.7-.05H36A1.76,1.76,0,0,0,34.4,46a15.65,15.65,0,0,0,1.34,4.93,2,2,0,0,0,.95.84,6.48,6.48,0,0,1,.72.45,2,2,0,0,1,.75,1.31,8.33,8.33,0,0,0,2.54,3.93c.2.19,1.08.88,2.21,1.68a.51.51,0,0,1,.22.43A21.41,21.41,0,0,1,42.94,62a2.16,2.16,0,0,1-1.65,1.53L34.22,66.1A7.87,7.87,0,0,0,32.1,67a5.49,5.49,0,0,0-2.94,3.86c-.45,1.66-.52,6.28-.55,8.25C28.6,79.4,28.6,79.67,28.59,79.86Z" transform="translate(-11 -11)"/><path class="cls-9" d="M60.48,48.88l-.6-.07.2-1.77-1,.43-.24-.55,1.49-.64a.32.32,0,0,1,.3,0,.33.33,0,0,1,.12.28Zm-24.22-.34L36,46.24a.31.31,0,0,1,.12-.27.27.27,0,0,1,.3,0l1.49.64-.24.55-1-.44.2,1.78Z" transform="translate(-11 -11)"/><path class="cls-8" d="M37.6,53h0a.2.2,0,0,1-.2-.2l.17-8.65a.2.2,0,0,1,.2-.2h0a.22.22,0,0,1,.2.21l-.17,8.64A.2.2,0,0,1,37.6,53Z" transform="translate(-11 -11)"/><path class="cls-8" d="M59,53a.2.2,0,0,1-.2-.2l-.16-8.64a.21.21,0,0,1,.19-.21h0a.21.21,0,0,1,.2.2l.16,8.65A.19.19,0,0,1,59,53Z" transform="translate(-11 -11)"/><path class="cls-10" d="M63.08,36.32c-2.26.17-3.68-2.54-5.15-4.54a11.74,11.74,0,0,0-15.12-3.57A6.77,6.77,0,0,0,40,30.48c-2.64,1.12-4.13,4.56-4.71,7.87-.68,3.85,2.59,9.82,2.78,6.5A26.77,26.77,0,0,1,40,37a19.18,19.18,0,0,0,1-3c.32,2.5,3.57,4.87,5.61,4.89.22,0,.32-.86.26-2A7.12,7.12,0,0,0,49,39.27,11.74,11.74,0,0,0,53.42,41a2,2,0,0,1-1-1.55,5.88,5.88,0,0,1-.05-1,8.23,8.23,0,0,0,4.31,1.66h.54a14.11,14.11,0,0,1,1.17,5.1c.19,3.32,2.66-2.23,2-6.08,0,0,0-.06,0-.09A8.85,8.85,0,0,0,63.08,36.32Zm-21.71-4,0-.14,0,0A.75.75,0,0,0,41.37,32.29Z" transform="translate(-11 -11)"/><path class="cls-8" d="M48.37,62.38c-2,0-5.46-2.61-5.61-2.73a.25.25,0,1,1,.31-.39s3.71,2.82,5.49,2.61,4.77-2.38,4.79-2.4a.25.25,0,0,1,.35.05.24.24,0,0,1-.05.35c-.12.1-3.07,2.26-5,2.5Z" transform="translate(-11 -11)"/><path class="cls-8" d="M29,25h1V37H29Z" transform="translate(-11 -11)"/><path class="cls-2" d="M31.41,36.67a2.12,2.12,0,1,0-3.95,1.5h0L29.34,42l1.76-3.56A2.13,2.13,0,0,0,31.41,36.67Z" transform="translate(-11 -11)"/><path class="cls-8" d="M29.34,42.51a.51.51,0,0,1-.45-.28L27,38.39a.69.69,0,0,1-.05-.13,2.61,2.61,0,0,1,.8-3.09A2.67,2.67,0,0,1,30,34.7a2.61,2.61,0,0,1,1.85,1.84,2.64,2.64,0,0,1-.38,2.2l-1.72,3.49A.51.51,0,0,1,29.34,42.51ZM28,38.06l1.39,2.82,1.31-2.65a1.67,1.67,0,0,0,.27-1.43,1.62,1.62,0,0,0-3.18.44,1.65,1.65,0,0,0,.17.71A.36.36,0,0,1,28,38.06Z" transform="translate(-11 -11)"/><path class="cls-4" d="M48,35.5c-6.21,0-10.07-1.29-10.47-2.22l0-.07v-8h21v8.07l0,0C58.07,34.21,54.21,35.5,48,35.5Z" transform="translate(-11 -11)"/><path class="cls-8" d="M58,25.67v7.44C57.6,33.8,54,35,48,35s-9.6-1.21-10-1.89V25.67Zm1-1H37v8.81h.07C37.68,34.9,42.34,36,48,36s10.32-1.1,10.93-2.52H59Z" transform="translate(-11 -11)"/><path class="cls-2" d="M29,25.3l19.18-6.07L67.34,25.3,48.16,31.38Z" transform="translate(-11 -11)"/><path class="cls-8" d="M48.16,19.75,65.69,25.3,48.16,30.86,30.64,25.31Zm0-1.05L27.33,25.3l20.83,6.6L69,25.3Z" transform="translate(-11 -11)"/></svg>