<svg id="Layer_1" data-name="Layer 1" xmlns="http://www.w3.org/2000/svg" viewBox="0 0 270 261"><defs><style>.cls-1{fill:#413960;}</style></defs><title>web-development</title><path class="cls-1" d="M13.5,180A4.51,4.51,0,0,1,9,175.5V31.5A13.52,13.52,0,0,1,22.5,18h243A13.52,13.52,0,0,1,279,31.5V45a4.5,4.5,0,0,1-9,0V31.5a4.51,4.51,0,0,0-4.5-4.5H22.5A4.51,4.51,0,0,0,18,31.5v144A4.51,4.51,0,0,1,13.5,180ZM144,279H94.5a4.5,4.5,0,0,1,0-9h9A13.52,13.52,0,0,0,117,256.5V234a4.5,4.5,0,0,1,9,0v22.5a22.36,22.36,0,0,1-4.51,13.5H144a4.5,4.5,0,0,1,0,9Z" transform="translate(-9 -18)"/><path class="cls-1" d="M139.5,234H22.5A13.52,13.52,0,0,1,9,220.5v-27a4.51,4.51,0,0,1,4.5-4.5h126a4.5,4.5,0,0,1,0,9H18v22.5a4.51,4.51,0,0,0,4.5,4.5h117a4.5,4.5,0,0,1,0,9Zm54-153h45a4.5,4.5,0,0,0,0-9h-45a4.5,4.5,0,0,0,0,9Zm18,180h9a4.5,4.5,0,0,0,0-9h-9a4.5,4.5,0,0,0,0,9Z" transform="translate(-9 -18)"/><path class="cls-1" d="M256.5,279h-81A22.52,22.52,0,0,1,153,256.5V76.5A22.52,22.52,0,0,1,175.5,54h81A22.52,22.52,0,0,1,279,76.5v180A22.52,22.52,0,0,1,256.5,279Zm-81-216A13.52,13.52,0,0,0,162,76.5v180A13.52,13.52,0,0,0,175.5,270h81A13.52,13.52,0,0,0,270,256.5V76.5A13.52,13.52,0,0,0,256.5,63Z" transform="translate(-9 -18)"/></svg>