<svg id="Layer_1" data-name="Layer 1" xmlns="http://www.w3.org/2000/svg" viewBox="0 0 288.02 198"><defs><style>.cls-1{fill:#fff;stroke:#413960;stroke-linecap:round;stroke-linejoin:round;stroke-width:18px;fill-rule:evenodd;}</style></defs><title>youtube</title><path class="cls-1" d="M267.52,80.33c-7.33-12.63-15.27-15-31.45-15.84C219.91,63.43,179.24,63,144,63s-76,.43-92.11,1.49c-16.15.9-24.1,3.21-31.5,15.84S9,114.7,9,153v.15c0,38.1,3.89,60,11.43,72.47,7.38,12.61,15.34,14.92,31.5,16,16.15.9,56.81,1.44,92.11,1.44s75.87-.54,92.05-1.44c16.18-1.06,24.12-3.37,31.44-16,7.64-12.5,11.49-34.38,11.49-72.47V153c0-38.26-3.85-60-11.5-72.63Z" transform="translate(0 -54)"/><path class="cls-1" d="M117,198V108l72,45Z" transform="translate(0 -54)"/></svg>